<svg width="24" height="24" viewBox="0 0 24 24" fill="none" xmlns="http://www.w3.org/2000/svg">
<path d="M11.9997 0.333252C5.58301 0.333252 0.333008 5.58325 0.333008 11.9999C0.333008 18.4166 5.58301 23.6666 11.9997 23.6666C18.4163 23.6666 23.6663 18.4166 23.6663 11.9999C23.6663 5.58325 18.4163 0.333252 11.9997 0.333252ZM14.333 16.3166C13.7497 16.6666 13.0497 16.4333 12.6997 15.8499L10.9497 12.5833C10.833 12.3499 10.833 12.2333 10.833 11.9999V6.16658C10.833 5.46659 11.2997 4.99992 11.9997 4.99992C12.6997 4.99992 13.1663 5.46659 13.1663 6.16658V11.6499L14.7997 14.6833C15.033 15.2666 14.9163 15.9666 14.333 16.3166Z" fill="#2554FF"/>
</svg>
