<svg width="48" height="48" viewBox="0 0 48 48" fill="none" xmlns="http://www.w3.org/2000/svg">
<g filter="url(#filter0_d_55_13604)">
<rect x="10" y="6" width="28" height="28" rx="8" fill="#FCFEFF"/>
<path d="M21.0007 20C21.0007 18.3432 22.3435 16.9998 24.0004 16.9998C25.6572 16.9998 27.0007 18.3432 27.0007 20C27.0007 21.6568 25.6572 23.0002 24.0004 23.0002C22.3435 23.0002 21.0007 21.6568 21.0007 20ZM19.3788 20C19.3788 22.5524 21.4478 24.6214 24.0004 24.6214C26.5529 24.6214 28.622 22.5524 28.622 20C28.622 17.4476 26.5529 15.3786 24.0004 15.3786C21.4478 15.3786 19.3788 17.4476 19.3788 20ZM27.7248 15.1954C27.7248 15.7915 28.2083 16.2757 28.8052 16.2757C29.4013 16.2757 29.8855 15.7915 29.8855 15.1954C29.8855 14.5993 29.402 14.1158 28.8052 14.1158C28.2083 14.1158 27.7248 14.5993 27.7248 15.1954ZM20.3639 27.3258C19.4864 27.2858 19.0095 27.1397 18.6925 27.0161C18.2723 26.8525 17.9727 26.6577 17.6572 26.3429C17.3424 26.0281 17.1469 25.7286 16.984 25.3084C16.8604 24.9914 16.7143 24.5145 16.6743 23.6371C16.6307 22.6884 16.622 22.4034 16.622 20C16.622 17.5966 16.6314 17.3124 16.6743 16.3629C16.7143 15.4855 16.8611 15.0093 16.984 14.6916C17.1476 14.2714 17.3424 13.9719 17.6572 13.6564C17.972 13.3416 18.2715 13.146 18.6925 12.9832C19.0095 12.8596 19.4864 12.7135 20.3639 12.6735C21.3126 12.6299 21.5976 12.6212 24.0004 12.6212C26.4039 12.6212 26.6881 12.6306 27.6376 12.6735C28.5151 12.7135 28.9913 12.8603 29.309 12.9832C29.7292 13.146 30.0287 13.3416 30.3442 13.6564C30.659 13.9712 30.8539 14.2714 31.0174 14.6916C31.141 15.0086 31.2872 15.4855 31.3272 16.3629C31.3708 17.3124 31.3795 17.5966 31.3795 20C31.3795 22.4027 31.3708 22.6876 31.3272 23.6371C31.2872 24.5145 31.1403 24.9914 31.0174 25.3084C30.8539 25.7286 30.659 26.0281 30.3442 26.3429C30.0294 26.6577 29.7292 26.8525 29.309 27.0161C28.992 27.1397 28.5151 27.2858 27.6376 27.3258C26.6888 27.3694 26.4039 27.3781 24.0004 27.3781C21.5976 27.3781 21.3126 27.3694 20.3639 27.3258ZM20.2897 11.0545C19.3315 11.0981 18.6772 11.2501 18.1051 11.4725C17.5133 11.7023 17.0116 12.0105 16.5107 12.5107C16.0105 13.0108 15.7023 13.5124 15.4726 14.1049C15.2501 14.6771 15.0981 15.3313 15.0545 16.2895C15.0102 17.2491 15 17.5559 15 20C15 22.4441 15.0102 22.7509 15.0545 23.7105C15.0981 24.6687 15.2501 25.3229 15.4726 25.8951C15.7023 26.4868 16.0098 26.9892 16.5107 27.4893C17.0109 27.9895 17.5125 28.297 18.1051 28.5275C18.6779 28.7499 19.3315 28.9019 20.2897 28.9455C21.2501 28.9891 21.5562 29 24.0004 29C26.4453 29 26.7514 28.9898 27.711 28.9455C28.6692 28.9019 29.3235 28.7499 29.8957 28.5275C30.4875 28.297 30.9891 27.9895 31.49 27.4893C31.9902 26.9892 32.2977 26.4868 32.5282 25.8951C32.7506 25.3229 32.9033 24.6687 32.9462 23.7105C32.9898 22.7502 33 22.4441 33 20C33 17.5559 32.9898 17.2491 32.9462 16.2895C32.9026 15.3313 32.7506 14.6771 32.5282 14.1049C32.2977 13.5132 31.9902 13.0116 31.49 12.5107C30.9898 12.0105 30.4875 11.7023 29.8964 11.4725C29.3235 11.2501 28.6692 11.0974 27.7117 11.0545C26.7521 11.0109 26.4453 11 24.0011 11C21.5562 11 21.2501 11.0102 20.2897 11.0545Z" fill="#1F1F20"/>
</g>
<defs>
<filter id="filter0_d_55_13604" x="0" y="0" width="48" height="48" filterUnits="userSpaceOnUse" color-interpolation-filters="sRGB">
<feFlood flood-opacity="0" result="BackgroundImageFix"/>
<feColorMatrix in="SourceAlpha" type="matrix" values="0 0 0 0 0 0 0 0 0 0 0 0 0 0 0 0 0 0 127 0" result="hardAlpha"/>
<feOffset dy="4"/>
<feGaussianBlur stdDeviation="5"/>
<feComposite in2="hardAlpha" operator="out"/>
<feColorMatrix type="matrix" values="0 0 0 0 0.2875 0 0 0 0 0.552042 0 0 0 0 1 0 0 0 0.3 0"/>
<feBlend mode="normal" in2="BackgroundImageFix" result="effect1_dropShadow_55_13604"/>
<feBlend mode="normal" in="SourceGraphic" in2="effect1_dropShadow_55_13604" result="shape"/>
</filter>
</defs>
</svg>