<svg width="48" height="48" viewBox="0 0 48 48" fill="none" xmlns="http://www.w3.org/2000/svg">
<g filter="url(#filter0_d_55_13600)">
<rect x="10" y="6" width="28" height="28" rx="8" fill="#FCFEFF"/>
<path d="M16 17H19.5781V28.0004H16V17ZM29.3245 17.129C29.2865 17.117 29.2505 17.104 29.2105 17.093C29.1625 17.0821 29.1142 17.0728 29.0655 17.065C28.8543 17.0218 28.6392 17 28.4235 17C26.3374 17 25.0144 18.5171 24.5783 19.1031V17H21.0002V28.0004H24.5783V22.0002C24.5783 22.0002 27.2825 18.2341 28.4235 21.0002V28.0004H32.0007V20.5771C31.9992 19.7873 31.7356 19.0202 31.2513 18.3962C30.767 17.7722 30.0894 17.3265 29.3245 17.129Z" fill="#1F1F20"/>
<path d="M17.7501 15.5001C18.7166 15.5001 19.5001 14.7166 19.5001 13.7501C19.5001 12.7835 18.7166 12 17.7501 12C16.7835 12 16 12.7835 16 13.7501C16 14.7166 16.7835 15.5001 17.7501 15.5001Z" fill="#1F1F20"/>
</g>
<defs>
<filter id="filter0_d_55_13600" x="0" y="0" width="48" height="48" filterUnits="userSpaceOnUse" color-interpolation-filters="sRGB">
<feFlood flood-opacity="0" result="BackgroundImageFix"/>
<feColorMatrix in="SourceAlpha" type="matrix" values="0 0 0 0 0 0 0 0 0 0 0 0 0 0 0 0 0 0 127 0" result="hardAlpha"/>
<feOffset dy="4"/>
<feGaussianBlur stdDeviation="5"/>
<feComposite in2="hardAlpha" operator="out"/>
<feColorMatrix type="matrix" values="0 0 0 0 0.2875 0 0 0 0 0.552042 0 0 0 0 1 0 0 0 0.3 0"/>
<feBlend mode="normal" in2="BackgroundImageFix" result="effect1_dropShadow_55_13600"/>
<feBlend mode="normal" in="SourceGraphic" in2="effect1_dropShadow_55_13600" result="shape"/>
</filter>
</defs>
</svg>