<svg width="26" height="16" viewBox="0 0 26 16" fill="none" xmlns="http://www.w3.org/2000/svg">
<path d="M24.4403 0.493652H1.56002C0.701997 0.493652 0 1.19044 0 2.05367V13.9462C0 14.8042 0.701997 15.5062 1.56002 15.5062H24.4403C25.3034 15.5062 26.0003 14.8042 26.0003 13.9462V2.05367C26.0003 1.19044 25.3034 0.493652 24.4403 0.493652ZM23.9227 10.3479C23.9227 10.6351 23.6901 10.8679 23.4027 10.8679C22.4231 10.8679 21.6258 11.6649 21.6258 12.6445C21.6258 12.9317 21.3933 13.1645 21.1058 13.1645H4.89883C4.6114 13.1645 4.37882 12.9317 4.37882 12.6445C4.37882 11.6649 3.58205 10.8679 2.60247 10.8679C2.31505 10.8679 2.08247 10.6351 2.08247 10.3479V5.64782C2.08247 5.36064 2.31505 5.12781 2.60247 5.12781C3.58205 5.12781 4.37882 4.33079 4.37882 3.35121C4.37882 3.06404 4.6114 2.83121 4.89883 2.83121H21.1058C21.3933 2.83121 21.6258 3.06404 21.6258 3.35121C21.6258 4.33079 22.4231 5.12781 23.4027 5.12781C23.6901 5.12781 23.9227 5.36064 23.9227 5.64782V10.3479Z" fill="#2554FF"/>
<path d="M13.0032 3.87085C11.2639 3.87085 9.84863 5.7155 9.84863 7.98265C9.84863 10.2501 11.2639 12.0947 13.0032 12.0947C14.7425 12.0947 16.1573 10.2501 16.1573 7.98265C16.1573 5.7155 14.7425 3.87085 13.0032 3.87085ZM13.1761 9.81384V10.4354H12.7998V9.83187C12.453 9.82603 12.095 9.71837 11.8857 9.56907L12.029 9.16866C12.2443 9.31212 12.5551 9.42562 12.8892 9.42562C13.3137 9.42562 13.6006 9.18059 13.6006 8.8401C13.6006 8.51154 13.3676 8.30842 12.9253 8.12915C12.3159 7.88997 11.9396 7.61524 11.9396 7.09549C11.9396 6.59961 12.292 6.22306 12.8415 6.13343V5.53014H13.2122V6.10956C13.5707 6.1215 13.8155 6.21722 13.9886 6.31878L13.8393 6.7131C13.7139 6.64125 13.4691 6.50997 13.0867 6.50997C12.6266 6.50997 12.453 6.7847 12.453 7.02363C12.453 7.33441 12.6744 7.4898 13.1939 7.70487C13.8094 7.95573 14.1201 8.26651 14.1201 8.7982C14.1201 9.27022 13.7916 9.71228 13.1761 9.81384Z" fill="#2554FF"/>
<path d="M10.4865 3.87085H5.37116C5.15838 5.00785 4.26005 5.90618 3.12305 6.11921V9.87579C4.26005 10.0888 5.15838 10.9872 5.37116 12.1242H10.5186C9.48372 11.185 8.80857 9.68082 8.80857 7.98265C8.80857 6.30228 9.46988 4.81187 10.4865 3.87085ZM6.86059 8.51764H4.97557C4.68814 8.51764 4.45556 8.28481 4.45556 7.99763C4.45556 7.71046 4.68814 7.47763 4.97557 7.47763H6.86059C7.14801 7.47763 7.38059 7.71046 7.38059 7.99763C7.38059 8.28481 7.14801 8.51764 6.86059 8.51764ZM20.6346 3.87085H15.5194C16.5359 4.81187 17.1972 6.30228 17.1972 7.98265C17.1972 9.68083 16.5221 11.185 15.4874 12.1242H20.6346C20.8474 10.9872 21.7463 10.0886 22.8833 9.87554V6.11947C21.7463 5.90644 20.8474 5.00786 20.6346 3.87085ZM21.0307 8.51764H19.1457C18.8583 8.51764 18.6257 8.28481 18.6257 7.99763C18.6257 7.71046 18.8583 7.47763 19.1457 7.47763H21.0307C21.3182 7.47763 21.5507 7.71046 21.5507 7.99763C21.5507 8.28481 21.3182 8.51764 21.0307 8.51764Z" fill="#2554FF"/>
</svg>
