<svg width="92" height="13" viewBox="0 0 92 13" fill="none" xmlns="http://www.w3.org/2000/svg">
<path d="M5.32745 1.36274C5.60256 0.805305 6.39744 0.805305 6.67255 1.36274L7.88274 3.81486C7.99199 4.03622 8.20317 4.18964 8.44745 4.22514L11.1535 4.61836C11.7687 4.70774 12.0143 5.46372 11.5692 5.89763L9.61105 7.80633C9.43429 7.97864 9.35362 8.22689 9.39535 8.47018L9.8576 11.1653C9.96269 11.778 9.31961 12.2452 8.76939 11.956L6.34901 10.6835C6.13051 10.5686 5.86949 10.5686 5.65099 10.6835L3.23061 11.956C2.68039 12.2452 2.03731 11.778 2.1424 11.1653L2.60465 8.47018C2.64638 8.22689 2.56572 7.97864 2.38895 7.80633L0.430817 5.89763C-0.0143211 5.46372 0.231311 4.70774 0.846477 4.61836L3.55255 4.22514C3.79683 4.18964 4.00801 4.03622 4.11725 3.81486L5.32745 1.36274Z" fill="#F7A406"/>
<path d="M25.3274 1.36274C25.6026 0.805305 26.3974 0.805305 26.6726 1.36274L27.8827 3.81486C27.992 4.03622 28.2032 4.18964 28.4474 4.22514L31.1535 4.61836C31.7687 4.70774 32.0143 5.46372 31.5692 5.89763L29.611 7.80633C29.4343 7.97864 29.3536 8.22689 29.3954 8.47018L29.8576 11.1653C29.9627 11.778 29.3196 12.2452 28.7694 11.956L26.349 10.6835C26.1305 10.5686 25.8695 10.5686 25.651 10.6835L23.2306 11.956C22.6804 12.2452 22.0373 11.778 22.1424 11.1653L22.6046 8.47018C22.6464 8.22689 22.5657 7.97864 22.389 7.80633L20.4308 5.89763C19.9857 5.46372 20.2313 4.70774 20.8465 4.61836L23.5526 4.22514C23.7968 4.18964 24.008 4.03622 24.1173 3.81486L25.3274 1.36274Z" fill="#F7A406"/>
<path d="M45.3274 1.36274C45.6026 0.805305 46.3974 0.805305 46.6726 1.36274L47.8827 3.81486C47.992 4.03622 48.2032 4.18964 48.4474 4.22514L51.1535 4.61836C51.7687 4.70774 52.0143 5.46372 51.5692 5.89763L49.611 7.80633C49.4343 7.97864 49.3536 8.22689 49.3954 8.47018L49.8576 11.1653C49.9627 11.778 49.3196 12.2452 48.7694 11.956L46.349 10.6835C46.1305 10.5686 45.8695 10.5686 45.651 10.6835L43.2306 11.956C42.6804 12.2452 42.0373 11.778 42.1424 11.1653L42.6046 8.47018C42.6464 8.22689 42.5657 7.97864 42.389 7.80633L40.4308 5.89763C39.9857 5.46372 40.2313 4.70774 40.8465 4.61836L43.5526 4.22514C43.7968 4.18964 44.008 4.03622 44.1173 3.81486L45.3274 1.36274Z" fill="#F7A406"/>
<path d="M65.3274 1.36274C65.6026 0.805305 66.3974 0.805305 66.6726 1.36274L67.8827 3.81486C67.992 4.03622 68.2032 4.18964 68.4474 4.22514L71.1535 4.61836C71.7687 4.70774 72.0143 5.46372 71.5692 5.89763L69.611 7.80633C69.4343 7.97864 69.3536 8.22689 69.3954 8.47018L69.8576 11.1653C69.9627 11.778 69.3196 12.2452 68.7694 11.956L66.349 10.6835C66.1305 10.5686 65.8695 10.5686 65.651 10.6835L63.2306 11.956C62.6804 12.2452 62.0373 11.778 62.1424 11.1653L62.6046 8.47018C62.6464 8.22689 62.5657 7.97864 62.389 7.80633L60.4308 5.89763C59.9857 5.46372 60.2313 4.70774 60.8465 4.61836L63.5526 4.22514C63.7968 4.18964 64.008 4.03622 64.1173 3.81486L65.3274 1.36274Z" fill="#F7A406"/>
<path d="M85.3274 1.36274C85.6026 0.805305 86.3974 0.805305 86.6726 1.36274L87.8827 3.81486C87.992 4.03622 88.2032 4.18964 88.4474 4.22514L91.1535 4.61836C91.7687 4.70774 92.0143 5.46372 91.5692 5.89763L89.611 7.80633C89.4343 7.97864 89.3536 8.22689 89.3954 8.47018L89.8576 11.1653C89.9627 11.778 89.3196 12.2452 88.7694 11.956L86.349 10.6835C86.1305 10.5686 85.8695 10.5686 85.651 10.6835L83.2306 11.956C82.6804 12.2452 82.0373 11.778 82.1424 11.1653L82.6046 8.47018C82.6464 8.22689 82.5657 7.97864 82.389 7.80633L80.4308 5.89763C79.9857 5.46372 80.2313 4.70774 80.8465 4.61836L83.5526 4.22514C83.7968 4.18964 84.008 4.03622 84.1173 3.81486L85.3274 1.36274Z" fill="#F7A406"/>
</svg>