<svg width="48" height="48" viewBox="0 0 48 48" fill="none" xmlns="http://www.w3.org/2000/svg">
<g filter="url(#filter0_d_55_13608)">
<rect x="10" y="6" width="28" height="28" rx="8" fill="#FCFEFF"/>
<path d="M33 14.6773C32.3235 14.9577 31.6081 15.1431 30.876 15.2276C31.6484 14.7868 32.2271 14.0932 32.505 13.2757C31.7792 13.6885 30.9847 13.9793 30.156 14.1356C29.6021 13.5617 28.8645 13.1796 28.0588 13.0494C27.2532 12.9192 26.4251 13.0481 25.7044 13.416C24.9837 13.7839 24.4112 14.3699 24.0767 15.0822C23.7422 15.7944 23.6646 16.5926 23.856 17.3515C22.3885 17.2806 20.953 16.9155 19.6428 16.28C18.3326 15.6445 17.177 14.7527 16.251 13.6626C15.9262 14.2045 15.7556 14.8182 15.756 15.4426C15.7548 16.0225 15.9038 16.5937 16.1896 17.1052C16.4754 17.6168 16.8891 18.053 17.394 18.3748C16.8072 18.3595 16.2329 18.2091 15.72 17.9363V17.9793C15.7244 18.7918 16.0224 19.5779 16.5636 20.2046C17.1048 20.8314 17.8559 21.2603 18.69 21.4188C18.3689 21.5122 18.0356 21.5614 17.7 21.565C17.4677 21.5624 17.236 21.5423 17.007 21.5048C17.2445 22.2037 17.7042 22.8145 18.322 23.2522C18.9398 23.6899 19.685 23.9327 20.454 23.9469C19.1555 24.9231 17.5523 25.4558 15.9 25.4603C15.5992 25.4612 15.2986 25.444 15 25.4087C16.687 26.4494 18.6529 27.0018 20.661 26.9995C22.0467 27.0132 23.4214 26.763 24.7048 26.2635C25.9882 25.7639 27.1545 25.0251 28.1357 24.09C29.1168 23.155 29.8932 22.0426 30.4193 20.8177C30.9454 19.5928 31.2108 18.28 31.2 16.956C31.2 16.8098 31.2 16.655 31.2 16.5003C31.9062 15.9971 32.5153 15.3802 33 14.6773Z" fill="#1F1F20"/>
</g>
<defs>
<filter id="filter0_d_55_13608" x="0" y="0" width="48" height="48" filterUnits="userSpaceOnUse" color-interpolation-filters="sRGB">
<feFlood flood-opacity="0" result="BackgroundImageFix"/>
<feColorMatrix in="SourceAlpha" type="matrix" values="0 0 0 0 0 0 0 0 0 0 0 0 0 0 0 0 0 0 127 0" result="hardAlpha"/>
<feOffset dy="4"/>
<feGaussianBlur stdDeviation="5"/>
<feComposite in2="hardAlpha" operator="out"/>
<feColorMatrix type="matrix" values="0 0 0 0 0.2875 0 0 0 0 0.552042 0 0 0 0 1 0 0 0 0.3 0"/>
<feBlend mode="normal" in2="BackgroundImageFix" result="effect1_dropShadow_55_13608"/>
<feBlend mode="normal" in="SourceGraphic" in2="effect1_dropShadow_55_13608" result="shape"/>
</filter>
</defs>
</svg>