<svg width="36" height="38" viewBox="0 0 36 38" fill="none" xmlns="http://www.w3.org/2000/svg">
<path d="M35.4912 27.007C35.2973 26.5505 35.1034 26.0561 34.9094 25.6376C34.5991 24.953 34.2889 24.3063 34.0174 23.6977L33.9786 23.6597C31.3025 17.954 28.4324 12.1722 25.4072 6.46647L25.2908 6.23824C24.9806 5.66767 24.6703 5.05906 24.36 4.45045C23.9722 3.76577 23.5843 3.04304 22.9638 2.35836C21.7226 0.836837 19.9385 0 18.0381 0C16.0989 0 14.3536 0.836837 13.0737 2.28228C12.4919 2.96697 12.0653 3.68969 11.6774 4.37437C11.3671 4.98298 11.0569 5.59159 10.7466 6.16216L10.6302 6.39039C7.64381 12.0961 4.73496 17.8779 2.05882 23.5836L2.02003 23.6597C1.74854 24.2683 1.43826 24.9149 1.12799 25.5996C0.934064 26.018 0.740141 26.4745 0.546217 26.969C0.0420168 28.3764 -0.113122 29.7077 0.0808014 31.0771C0.507433 33.9299 2.44667 36.3263 5.12281 37.3914C6.13121 37.8098 7.17839 38 8.26436 38C8.57464 38 8.96249 37.962 9.27277 37.9239C10.5527 37.7718 11.8713 37.3534 13.1512 36.6306C14.7414 35.7558 16.254 34.5005 17.9605 32.6747C19.6671 34.5005 21.2184 35.7558 22.7698 36.6306C24.0497 37.3534 25.3684 37.7718 26.6483 37.9239C26.9586 37.962 27.3464 38 27.6567 38C28.7427 38 29.8286 37.8098 30.7983 37.3914C33.5132 36.3263 35.4136 33.8919 35.8403 31.0771C36.1505 29.7457 35.9954 28.4144 35.4912 27.007ZM17.9993 28.985C15.9049 26.3984 14.5475 23.964 14.0821 21.9099C13.8881 21.035 13.8494 20.2743 13.9657 19.5896C14.0433 18.981 14.276 18.4484 14.5863 17.992C15.3232 16.965 16.5643 16.3183 17.9993 16.3183C19.4343 16.3183 20.7142 16.9269 21.4124 17.992C21.7226 18.4484 21.9553 18.981 22.0329 19.5896C22.1493 20.2743 22.1105 21.0731 21.9166 21.9099C21.4512 23.9259 20.0937 26.3604 17.9993 28.985ZM33.4744 30.7728C33.2029 32.7507 31.8454 34.4625 29.945 35.2232C29.0142 35.6036 28.0058 35.7177 26.9974 35.6036C26.0277 35.4895 25.0581 35.1852 24.0497 34.6146C22.6535 33.8539 21.2572 32.6747 19.6283 30.9249C22.1881 27.8438 23.7394 25.029 24.3212 22.5185C24.5927 21.3393 24.6315 20.2743 24.5151 19.2853C24.36 18.3343 24.0109 17.4595 23.468 16.6987C22.2656 14.987 20.2488 13.998 17.9993 13.998C15.7498 13.998 13.733 15.025 12.5307 16.6987C11.9877 17.4595 11.6386 18.3343 11.4835 19.2853C11.3284 20.2743 11.3671 21.3774 11.6774 22.5185C12.2592 25.029 13.8494 27.8819 16.3704 30.963C14.7802 32.7127 13.3452 33.8919 11.9489 34.6526C10.9405 35.2232 9.97089 35.5275 9.00127 35.6416C7.95409 35.7557 6.94569 35.6036 6.05364 35.2613C4.15319 34.5005 2.79573 32.7888 2.52423 30.8108C2.40788 29.8599 2.48545 28.9089 2.8733 27.8438C2.98965 27.4635 3.18357 27.0831 3.3775 26.6266C3.64899 26.018 3.95927 25.3714 4.26954 24.7247L4.30833 24.6486C6.98447 18.981 9.85454 13.1992 12.841 7.56957L12.9573 7.34134C13.2676 6.77077 13.5779 6.16216 13.8881 5.59159C14.1984 4.98298 14.5475 4.41241 14.9741 3.91792C15.7886 3.005 16.8746 2.51051 18.0769 2.51051C19.2792 2.51051 20.3652 3.005 21.1797 3.91792C21.6063 4.41241 21.9553 4.98298 22.2656 5.59159C22.5759 6.16216 22.8862 6.77077 23.1965 7.34134L23.3128 7.56957C26.2604 13.2372 29.1305 19.019 31.8067 24.6867V24.7247C32.1169 25.3333 32.3884 26.018 32.6987 26.6266C32.8926 27.0831 33.0865 27.4635 33.2029 27.8438C33.5132 28.8328 33.6295 29.7838 33.4744 30.7728Z" fill="#FF5A5F"/>
</svg>