<svg width="43" height="43" viewBox="0 0 43 43" fill="none" xmlns="http://www.w3.org/2000/svg">
<path d="M19.9944 16.1602L14.654 20.2685C14.1064 18.214 12.3255 16.7072 10.1343 16.7072H6.30016V26.1565H10.1343C12.3254 26.1565 14.2423 24.6495 14.6531 22.5953L19.9943 26.7035L25.3355 22.5953V26.1565H31.3603V24.2389H27.3897V16.7073H25.1979V20.2673L20.1309 24.3767L19.035 23.4176L21.5009 21.4999L24.1021 19.4457L22.5962 18.214L17.5291 22.1845L16.4338 21.2257L21.5009 17.3916L19.9939 16.1598L19.9944 16.1602ZM8.35454 18.6237H9.9981C10.3405 18.6237 10.6745 18.7018 10.9826 18.843C11.2907 18.9843 11.5723 19.1893 11.8119 19.4461C12.0516 19.7029 12.2488 20.0105 12.3859 20.3571C12.5227 20.7037 12.5993 21.0894 12.5993 21.5002C12.5992 21.8705 12.5332 22.2378 12.4045 22.585C12.2782 22.9253 12.0943 23.2377 11.8632 23.503C11.6322 23.7684 11.3543 23.9868 11.0397 24.1388C10.7252 24.2907 10.3746 24.3756 9.99816 24.3756H8.3546V18.6237H8.35454ZM38.2079 24.2395V26.1567H32.1825V16.7074H34.3736V24.239H38.208L38.2079 24.2395ZM21.5 0C9.72278 0 0 9.72278 0 21.5C0 33.2772 9.58601 43 21.5 43C33.414 43 43 33.414 43 21.5C43 9.58601 33.2772 0 21.5 0ZM21.5 2.19175C22.8351 2.19175 24.1378 2.32576 25.3959 2.58251C26.6393 2.83607 27.8545 3.21235 29.0236 3.70582C30.172 4.1911 31.2705 4.78684 32.3036 5.48465C33.3289 6.17656 34.2855 6.9652 35.1603 7.83974C36.0348 8.71449 36.8234 9.67108 37.5153 10.6964C38.2132 11.7295 38.8089 12.828 39.2942 13.9764C39.7876 15.1455 40.1639 16.3607 40.4175 17.6041C40.6743 18.8622 40.8083 20.1649 40.8083 21.5C40.8083 22.8351 40.6742 24.1378 40.4175 25.3959C40.1639 26.6393 39.7877 27.8545 39.2942 29.0236C38.8089 30.172 38.2132 31.2705 37.5153 32.3036C36.8234 33.3289 36.0348 34.2855 35.1603 35.1603C34.2855 36.0348 33.3289 36.8234 32.3036 37.5153C31.2705 38.2132 30.172 38.8089 29.0236 39.2942C27.8545 39.7876 26.6393 40.1639 25.3959 40.4175C24.1378 40.6743 22.8351 40.8083 21.5 40.8083C20.1649 40.8083 18.8622 40.6742 17.6041 40.4175C16.3604 40.1654 15.145 39.7896 13.976 39.2959C12.8276 38.8104 11.7292 38.2146 10.696 37.5168C8.64053 36.1301 6.87115 34.3608 5.48441 32.3054C4.78673 31.2722 4.191 30.1738 3.70558 29.0255C3.21213 27.8562 2.83585 26.6409 2.58227 25.3974C2.32552 24.1396 2.19151 22.8371 2.19151 21.5017C2.19151 20.1663 2.32552 18.8637 2.58227 17.606C2.83582 16.3624 3.2121 15.1471 3.70558 13.9779C4.191 12.8296 4.78673 11.7311 5.48441 10.6979C6.1762 9.67256 6.96485 8.716 7.8395 7.84141C8.71409 6.96676 9.67065 6.17811 10.696 5.48632C11.7292 4.78864 12.8277 4.19291 13.976 3.7075C15.1452 3.21404 16.3605 2.83776 17.6041 2.58418C18.8618 2.32743 20.1644 2.19342 21.4998 2.19342L21.5 2.19175Z" fill="#008FDF"/>
</svg>