<svg width="33" height="32" viewBox="0 0 33 32" fill="none" xmlns="http://www.w3.org/2000/svg">
<path d="M16.5001 30.8922C24.7845 30.8922 31.5002 24.1764 31.5002 15.8921C31.5002 7.60775 24.7845 0.891968 16.5001 0.891968C8.21578 0.891968 1.5 7.60775 1.5 15.8921C1.5 24.1764 8.21578 30.8922 16.5001 30.8922Z" fill="#EC407A"/>
<path d="M16.5001 -0.000244141C7.67806 -0.000244141 0.5 7.17781 0.5 15.9999C0.5 24.8219 7.67806 32 16.5001 32C25.3222 32 32.5002 24.8219 32.5002 15.9999C32.5002 7.17781 25.3222 -0.000244141 16.5001 -0.000244141ZM30.4942 16.1199C27.1735 15.2298 23.6917 15.1217 20.3222 15.8039C19.8703 14.677 19.3821 13.5651 18.8581 12.4699C21.8815 11.0544 24.6491 9.14717 27.0482 6.82581C29.2731 9.36416 30.4999 12.6245 30.5002 15.9999C30.5002 16.0399 30.4942 16.0779 30.4942 16.1199ZM25.6342 5.4138C23.3962 7.58446 20.813 9.3681 17.9901 10.6918C16.4888 7.82255 14.7422 5.08836 12.7701 2.51978C13.9841 2.17827 15.239 2.00334 16.5001 1.99977C19.8569 1.99925 23.1007 3.2117 25.6342 5.4138ZM10.7941 3.22778C12.8153 5.80052 14.5993 8.55112 16.1241 11.4458C11.8831 13.0745 7.31102 13.653 2.79802 13.1319C3.2564 10.9678 4.21962 8.94272 5.60917 7.22159C6.99873 5.50047 8.77529 4.13202 10.7941 3.22778ZM2.50002 15.9999C2.50002 15.6999 2.52602 15.4059 2.54602 15.1119C3.73003 15.2519 4.91403 15.3439 6.09404 15.3439C9.85807 15.3439 13.5561 14.6079 17.0221 13.2579C17.5021 14.2579 17.9541 15.2719 18.3721 16.2999C13.357 17.8009 9.02522 21.0097 6.12804 25.37C3.7953 22.8066 2.50176 19.4658 2.50002 15.9999ZM7.59005 26.79C10.2502 22.6132 14.3381 19.546 19.0921 18.1599C20.3621 21.6547 21.2682 25.2712 21.7962 28.952C19.4552 29.9162 16.8958 30.2244 14.3929 29.8435C11.89 29.4625 9.53817 28.4069 7.59005 26.79ZM23.6722 28C23.1278 24.4903 22.2519 21.0402 21.0562 17.6959C24.1364 17.1231 27.3074 17.2724 30.3202 18.1319C30.0044 20.1639 29.245 22.1014 28.096 23.8069C26.9471 25.5123 25.4367 26.9439 23.6722 28Z" fill="#C2185B"/>
</svg>