<svg width="40" height="37" viewBox="0 0 40 37" fill="none" xmlns="http://www.w3.org/2000/svg">
<path fill-rule="evenodd" clip-rule="evenodd" d="M20.4773 36.4711L27.6666 14.345H13.2881L20.4773 36.4711Z" fill="#E24329"/>
<path fill-rule="evenodd" clip-rule="evenodd" d="M20.4777 36.4711L13.2884 14.345H3.21289L20.4777 36.4711Z" fill="#FC6D26"/>
<path fill-rule="evenodd" clip-rule="evenodd" d="M3.2126 14.345L1.02792 21.0689C0.930796 21.3678 0.930797 21.6898 1.02792 21.9888C1.12505 22.2877 1.31432 22.5482 1.5686 22.733L20.4776 36.4711L3.2126 14.345Z" fill="#FCA326"/>
<path fill-rule="evenodd" clip-rule="evenodd" d="M3.21289 14.3454H13.2884L8.95834 1.01868C8.73563 0.332873 7.76571 0.333059 7.54281 1.01868L3.21289 14.3454Z" fill="#E24329"/>
<path fill-rule="evenodd" clip-rule="evenodd" d="M20.4775 36.4711L27.6668 14.345H37.7423L20.4775 36.4711Z" fill="#FC6D26"/>
<path fill-rule="evenodd" clip-rule="evenodd" d="M37.7423 14.345L39.927 21.0689C40.0242 21.3678 40.0242 21.6898 39.927 21.9888C39.8299 22.2877 39.6406 22.5482 39.3863 22.733L20.4775 36.4711L37.7423 14.345Z" fill="#FCA326"/>
<path fill-rule="evenodd" clip-rule="evenodd" d="M37.7425 14.3454H27.667L31.9971 1.01868C32.2198 0.332873 33.1899 0.333059 33.4126 1.01868L37.7425 14.3454Z" fill="#E24329"/>
</svg>