<svg width="36" height="36" viewBox="0 0 36 36" fill="none" xmlns="http://www.w3.org/2000/svg">
<path d="M34 0H2C0.89543 0 0 0.89543 0 2V34C0 35.1046 0.89543 36 2 36H34C35.1046 36 36 35.1046 36 34V2C36 0.89543 35.1046 0 34 0Z" fill="#008FDF"/>
<path fill-rule="evenodd" clip-rule="evenodd" d="M6.56913 13.9241H11.3806V29.4051H6.56913V13.9241ZM8.97563 6.22865C10.5141 6.22865 11.7641 7.47865 11.7641 9.01715C11.7641 10.5571 10.5141 11.8076 8.97563 11.8076C8.60486 11.8147 8.23642 11.7477 7.89183 11.6107C7.54725 11.4736 7.23344 11.2693 6.96875 11.0096C6.70406 10.7498 6.4938 10.44 6.35027 10.098C6.20674 9.75609 6.13281 9.38898 6.13281 9.01815C6.13281 8.64732 6.20674 8.2802 6.35027 7.93827C6.4938 7.59635 6.70406 7.28646 6.96875 7.02674C7.23344 6.76701 7.54725 6.56266 7.89183 6.42563C8.23642 6.28859 8.60486 6.22163 8.97563 6.22865ZM14.3986 13.9236H19.0136V16.0391H19.0776C19.7201 14.8221 21.2896 13.5391 23.6301 13.5391C28.5021 13.5391 29.4021 16.7456 29.4021 20.9141V29.4051H24.5936V21.8766C24.5936 20.0816 24.5606 17.7721 22.0936 17.7721C19.5901 17.7721 19.2056 19.7276 19.2056 21.7471V29.4051H14.3981V13.9241L14.3986 13.9236Z" fill="white"/>
</svg>