<svg width="37" height="24" viewBox="0 0 37 24" fill="none" xmlns="http://www.w3.org/2000/svg">
<path d="M4.38802 15.6909C4.38802 17.0213 4.68974 18.0428 5.0841 18.6607C5.60115 19.4701 6.37234 19.813 7.15855 19.813C8.17262 19.813 9.1003 19.5695 10.8881 17.1764C12.3203 15.2583 14.0079 12.566 15.1434 10.8781L17.0664 8.01854C18.4022 6.0326 19.9483 3.82492 21.7211 2.3285C23.1683 1.10713 24.7295 0.428589 26.3006 0.428589C28.9385 0.428589 31.4511 1.90805 33.3741 4.68279C35.4786 7.72168 36.5001 11.5494 36.5001 15.4994C36.5001 17.8477 36.0219 19.5731 35.2081 20.9362C34.4219 22.2545 32.8896 23.5716 30.3118 23.5716V19.813C32.519 19.813 33.0698 17.8501 33.0698 15.6036C33.0698 12.4024 32.2987 8.84975 30.5998 6.31128C29.3942 4.51073 27.8317 3.41053 26.1128 3.41053C24.2537 3.41053 22.7577 4.76761 21.0763 7.18733C20.1824 8.47292 19.2648 10.0396 18.2344 11.8075L17.1002 13.7522C14.8216 17.6623 14.2445 18.5529 13.1052 20.0226C11.1084 22.5962 9.40327 23.5716 7.15855 23.5716C4.49569 23.5716 2.81183 22.4557 1.76897 20.7739C0.917658 19.4035 0.499512 17.6053 0.499512 15.5564L4.38802 15.6909Z" fill="#0081FB"/>
<path d="M3.56543 4.94815C5.34818 2.28851 7.92091 0.428589 10.8717 0.428589C12.5806 0.428589 14.2795 0.918107 16.0535 2.32002C17.994 3.85279 20.0622 6.37672 22.6424 10.5364L23.5676 12.0292C25.801 15.6303 27.0718 17.483 27.8154 18.3566C28.7719 19.4786 29.4417 19.813 30.3118 19.813C32.5189 19.813 33.0698 17.8501 33.0698 15.6036L36.5001 15.4994C36.5001 17.8477 36.0218 19.5731 35.2081 20.9362C34.4219 22.2545 32.8895 23.5716 30.3118 23.5716C28.7093 23.5716 27.2896 23.2348 25.7197 21.8014C24.5128 20.7012 23.1019 18.7467 22.0164 16.9898L18.7877 11.7699C17.1677 9.15025 15.6817 7.19702 14.8216 6.3125C13.8964 5.36133 12.7071 4.21266 10.8091 4.21266C9.273 4.21266 7.96848 5.25591 6.8768 6.85169L3.56543 4.94815Z" fill="url(#paint0_linear_1_5)"/>
<path d="M10.8092 4.21266C9.27307 4.21266 7.96855 5.25591 6.87687 6.85169C5.33323 9.10663 4.38802 12.4654 4.38802 15.6909C4.38802 17.0213 4.68974 18.0428 5.0841 18.6607L1.76897 20.7739C0.917658 19.4035 0.499512 17.6053 0.499512 15.5564C0.499512 11.8305 1.55614 7.94705 3.5655 4.94815C5.34826 2.28851 7.92098 0.428589 10.8718 0.428589L10.8092 4.21266Z" fill="url(#paint1_linear_1_5)"/>
<defs>
<linearGradient id="paint0_linear_1_5" x1="8.13624" y1="14.6052" x2="32.9203" y2="15.8985" gradientUnits="userSpaceOnUse">
<stop stop-color="#0064E1"/>
<stop offset="0.4" stop-color="#0064E1"/>
<stop offset="0.83" stop-color="#0073EE"/>
<stop offset="1" stop-color="#0082FB"/>
</linearGradient>
<linearGradient id="paint1_linear_1_5" x1="6.13322" y1="17.2709" x2="6.13322" y2="8.42566" gradientUnits="userSpaceOnUse">
<stop stop-color="#0082FB"/>
<stop offset="1" stop-color="#0064E0"/>
</linearGradient>
</defs>
</svg>
