<svg width="40" height="40" viewBox="0 0 40 40" fill="none" xmlns="http://www.w3.org/2000/svg">
<path fill-rule="evenodd" clip-rule="evenodd" d="M31.8 17.8C25.4 14 14.7 13.6 8.60001 15.5C7.60001 15.8 6.6 15.2 6.3 14.3C6 13.3 6.6 12.3 7.5 12C14.6 9.89999 26.3 10.3 33.7 14.7C34.6 15.2 34.9 16.4 34.4 17.3C33.9 18 32.7 18.3 31.8 17.8ZM31.6 23.4C31.1 24.1 30.2 24.4 29.5 23.9C24.1 20.6 15.9 19.6 9.6 21.6C8.8 21.8 7.9 21.4 7.7 20.6C7.5 19.8 7.9 18.9 8.7 18.7C16 16.5 25 17.6 31.2 21.4C31.8 21.7 32.1 22.7 31.6 23.4ZM29.2 28.9C28.8 29.5 28.1 29.7 27.5 29.3C22.8 26.4 16.9 25.8 9.9 27.4C9.2 27.6 8.6 27.1 8.4 26.5C8.2 25.8 8.7 25.2 9.3 25C16.9 23.3 23.5 24 28.7 27.2C29.4 27.5 29.5 28.3 29.2 28.9ZM20 0C9 0 0 9 0 20C0 31 9 40 20 40C31 40 40 31 40 20C40 9 31.1 0 20 0Z" fill="#00DA5A"/>
</svg>
