<svg width="35" height="18" viewBox="0 0 35 18" fill="none" xmlns="http://www.w3.org/2000/svg">
<path d="M10.3154 13.2759C8.8901 13.2759 7.72656 14.3375 7.72656 15.6379C7.72656 16.9383 8.8901 17.9999 10.3154 17.9999C11.7408 17.9999 12.9043 16.9383 12.9043 15.6379C12.9043 14.3375 11.7408 13.2759 10.3154 13.2759Z" fill="#FCB716"/>
<path d="M3.07812 13.2759C1.65279 13.2759 0.489258 14.3375 0.489258 15.6379C0.489258 16.9383 1.65279 17.9999 3.07812 17.9999C4.50345 17.9999 5.66698 16.9383 5.66698 15.6379C5.66698 14.3375 4.50345 13.2759 3.07812 13.2759Z" fill="#EE363F"/>
<path d="M17.5518 13.2759C16.1264 13.2759 14.9629 14.3375 14.9629 15.6379C14.9629 16.9383 16.1264 17.9999 17.5518 17.9999C18.9771 17.9999 20.1406 16.9383 20.1406 15.6379C20.1406 14.3375 18.9771 13.2759 17.5518 13.2759Z" fill="#07AF56"/>
<path d="M32.0264 13.2759C30.601 13.2759 29.4375 14.3375 29.4375 15.6379C29.4375 16.9383 30.601 17.9999 32.0264 17.9999C33.4517 17.9999 34.6152 16.9383 34.6152 15.6379C34.6152 14.3375 33.4517 13.2759 32.0264 13.2759Z" fill="#04A9DF"/>
<path d="M24.7891 13.2759C23.3637 13.2759 22.2002 14.3375 22.2002 15.6379C22.2002 16.9383 23.3637 17.9999 24.7891 17.9999C26.2144 17.9999 27.3779 16.9383 27.3779 15.6379C27.3779 14.3375 26.2144 13.2759 24.7891 13.2759Z" fill="#A1479A"/>
<path d="M0 5.90555C0 4.1813 1.35354 2.88066 3.02213 2.88066C4.70822 2.88066 6.04426 4.16937 6.04426 5.89361V8.54263C6.04426 8.81111 5.8634 9.00203 5.58335 9.00203C5.29748 9.00203 5.12245 8.81708 5.12245 8.54263V7.76702H5.07578C4.71989 8.38751 4.00811 8.92447 2.95795 8.92447C1.33604 8.93043 0 7.64173 0 5.90555ZM5.15162 5.90555C5.15162 4.66457 4.23565 3.72786 3.02213 3.72786C1.80861 3.72786 0.892637 4.66457 0.892637 5.90555C0.892637 7.14653 1.80861 8.08323 3.02213 8.08323C4.23565 8.08323 5.15162 7.14653 5.15162 5.90555ZM8.40712 10.8874C8.16792 10.768 8.05123 10.5592 8.14458 10.3146C8.23793 10.0581 8.46546 9.95066 8.70467 10.07C9.11889 10.2669 9.63231 10.4101 10.1807 10.4101C11.5459 10.4101 12.3686 9.58076 12.3686 8.16079V7.77298H12.3219C11.966 8.39347 11.2542 8.93043 10.2041 8.93043C8.57631 8.93043 7.24027 7.64173 7.24027 5.90555C7.24027 4.1813 8.59381 2.88066 10.2624 2.88066C11.9485 2.88066 13.2845 4.16937 13.2845 5.89361V8.09516C13.2845 9.99243 12.0943 11.2692 10.1457 11.2692C9.55063 11.2692 8.95554 11.1558 8.40712 10.8874ZM12.3919 5.90555C12.3919 4.66457 11.4759 3.72786 10.2624 3.72786C9.04888 3.72786 8.13291 4.66457 8.13291 5.90555C8.13291 7.14653 9.04888 8.08323 10.2624 8.08323C11.4759 8.08323 12.3919 7.14653 12.3919 5.90555ZM14.4747 5.90555C14.4747 4.1813 15.8166 2.88066 17.4968 2.88066C19.1829 2.88066 20.519 4.1813 20.519 5.90555C20.519 7.62979 19.1771 8.93043 17.4968 8.93043C15.8166 8.93043 14.4747 7.62979 14.4747 5.90555ZM19.6322 5.90555C19.6322 4.66457 18.7162 3.72786 17.5027 3.72786C16.2892 3.72786 15.3732 4.66457 15.3732 5.90555C15.3732 7.14653 16.2892 8.08323 17.5027 8.08323C18.7162 8.08323 19.6322 7.14653 19.6322 5.90555ZM21.715 5.90555C21.715 4.1813 23.0452 2.88066 24.6788 2.88066C25.7348 2.88066 26.4407 3.41762 26.7966 4.03811H26.8433V0.959523C26.8433 0.691042 27.0241 0.500122 27.3042 0.500122C27.5901 0.500122 27.7651 0.685076 27.7651 0.959523V5.91151C27.7651 7.63576 26.4232 8.92447 24.743 8.92447C23.0685 8.93043 21.715 7.62979 21.715 5.90555ZM26.8724 5.90555C26.8724 4.66457 25.9565 3.72786 24.743 3.72786C23.5294 3.72786 22.6135 4.66457 22.6135 5.90555C22.6135 7.14653 23.5294 8.08323 24.743 8.08323C25.9506 8.08323 26.8724 7.14653 26.8724 5.90555ZM28.9553 5.90555C28.9553 4.1813 30.3088 2.88066 31.9774 2.88066C33.6635 2.88066 34.9995 4.16937 34.9995 5.89361V8.54263C34.9995 8.81111 34.8187 9.00203 34.5386 9.00203C34.2527 9.00203 34.0777 8.81708 34.0777 8.54263V7.76702H34.031C33.6752 8.38751 32.9634 8.92447 31.9132 8.92447C30.2971 8.93043 28.9553 7.64173 28.9553 5.90555ZM34.1069 5.90555C34.1069 4.66457 33.1909 3.72786 31.9774 3.72786C30.7639 3.72786 29.8479 4.66457 29.8479 5.90555C29.8479 7.14653 30.7639 8.08323 31.9774 8.08323C33.1909 8.08323 34.1069 7.14653 34.1069 5.90555Z" fill="#5A5B5B"/>
</svg>
