<svg width="46" height="25" viewBox="0 0 46 25" fill="none" xmlns="http://www.w3.org/2000/svg">
<path d="M13.3778 9.29797C13.3778 9.80214 13.4365 10.2109 13.5392 10.5107C13.6565 10.8105 13.8032 11.1375 14.0085 11.4918C14.0818 11.6008 14.1112 11.7098 14.1112 11.8052C14.1112 11.9415 14.0232 12.0777 13.8325 12.214L12.9085 12.7863C12.7765 12.868 12.6445 12.9089 12.5271 12.9089C12.3804 12.9089 12.2338 12.8408 12.0871 12.7182C11.8818 12.5138 11.7058 12.2957 11.5591 12.0777C11.4124 11.8461 11.2657 11.5872 11.1044 11.2738C9.96036 12.5274 8.52298 13.1542 6.79225 13.1542C5.5602 13.1542 4.5775 12.8272 3.85881 12.1731C3.14012 11.519 2.77344 10.647 2.77344 9.55687C2.77344 8.39863 3.21345 7.45842 4.10815 6.74986C5.00285 6.04129 6.19089 5.68701 7.70161 5.68701C8.2003 5.68701 8.71365 5.72789 9.25634 5.79602C9.79902 5.86415 10.3564 5.97316 10.9431 6.0958V5.10108C10.9431 4.06549 10.7084 3.34329 10.2537 2.92088C9.78436 2.49847 8.99233 2.29407 7.86295 2.29407C7.3496 2.29407 6.82158 2.34858 6.2789 2.47121C5.73621 2.59385 5.20819 2.74374 4.69484 2.93451C4.46016 3.02989 4.28416 3.0844 4.18149 3.11165C4.07882 3.1389 4.00548 3.15253 3.94681 3.15253C3.74147 3.15253 3.6388 3.01626 3.6388 2.73011V2.06243C3.6388 1.84441 3.66814 1.68089 3.74147 1.58551C3.81481 1.49012 3.94681 1.39474 4.15215 1.29936C4.66551 1.05408 5.28153 0.849691 6.00022 0.686176C6.71891 0.509034 7.48161 0.427277 8.2883 0.427277C10.0337 0.427277 11.3097 0.795186 12.1311 1.531C12.9378 2.26682 13.3485 3.38417 13.3485 4.88306V9.29797H13.3778ZM7.42294 11.3692C7.90696 11.3692 8.40564 11.2874 8.93366 11.1239C9.46168 10.9604 9.93103 10.6606 10.327 10.2518C10.5617 9.99291 10.7377 9.70675 10.8257 9.37972C10.9137 9.05269 10.9724 8.65753 10.9724 8.19424V7.62194C10.5471 7.52655 10.0924 7.4448 9.62302 7.39029C9.15367 7.33579 8.69898 7.30853 8.2443 7.30853C7.2616 7.30853 6.54291 7.48568 6.05889 7.85358C5.57487 8.22149 5.3402 8.73929 5.3402 9.4206C5.3402 10.061 5.5162 10.538 5.88288 10.865C6.23489 11.2056 6.74825 11.3692 7.42294 11.3692ZM19.2007 12.8408C18.9367 12.8408 18.7607 12.7999 18.6433 12.7045C18.526 12.6228 18.4233 12.432 18.3353 12.1731L14.8885 1.64001C14.8005 1.36749 14.7565 1.19035 14.7565 1.09496C14.7565 0.876943 14.8739 0.754307 15.1085 0.754307H16.5459C16.8246 0.754307 17.0153 0.795186 17.118 0.890569C17.2353 0.972327 17.3233 1.16309 17.4113 1.42199L19.8754 10.4426L22.1635 1.42199C22.2368 1.14947 22.3248 0.972327 22.4421 0.890569C22.5595 0.808812 22.7648 0.754307 23.0288 0.754307H24.2022C24.4809 0.754307 24.6716 0.795186 24.7889 0.890569C24.9062 0.972327 25.0089 1.16309 25.0676 1.42199L27.385 10.5516L29.9224 1.42199C30.0104 1.14947 30.1131 0.972327 30.2158 0.890569C30.3331 0.808812 30.5238 0.754307 30.7878 0.754307H32.1518C32.3865 0.754307 32.5185 0.863317 32.5185 1.09496C32.5185 1.16309 32.5038 1.23123 32.4892 1.31298C32.4745 1.39474 32.4452 1.50375 32.3865 1.65364L28.8517 12.1867C28.7637 12.4593 28.661 12.6364 28.5437 12.7182C28.4264 12.7999 28.2357 12.8544 27.9863 12.8544H26.725C26.4463 12.8544 26.2556 12.8135 26.1383 12.7182C26.0209 12.6228 25.9183 12.4456 25.8596 12.1731L23.5862 3.38417L21.3274 12.1595C21.2541 12.432 21.1661 12.6091 21.0488 12.7045C20.9314 12.7999 20.7261 12.8408 20.4621 12.8408H19.2007ZM38.048 13.2087C37.2853 13.2087 36.5226 13.1269 35.7893 12.9634C35.0559 12.7999 34.4839 12.6228 34.1026 12.4184C33.8679 12.2957 33.7065 12.1595 33.6479 12.0368C33.5892 11.9142 33.5599 11.7779 33.5599 11.6553V10.9604C33.5599 10.6742 33.6772 10.538 33.8972 10.538C33.9852 10.538 34.0732 10.5516 34.1612 10.5788C34.2492 10.6061 34.3812 10.6606 34.5279 10.7151C35.0266 10.9195 35.5693 11.083 36.1413 11.192C36.728 11.301 37.3 11.3555 37.8867 11.3555C38.8107 11.3555 39.5294 11.2056 40.0281 10.9059C40.5268 10.6061 40.7908 10.17 40.7908 9.61137C40.7908 9.22984 40.6588 8.91643 40.3948 8.65753C40.1308 8.39863 39.6321 8.16699 38.9134 7.94897L36.7867 7.33579C35.716 7.02238 34.9239 6.55909 34.4399 5.94591C33.9559 5.34635 33.7065 4.67867 33.7065 3.9701C33.7065 3.3978 33.8386 2.89363 34.1026 2.45759C34.3666 2.02155 34.7186 1.64001 35.1586 1.34024C35.5986 1.02683 36.0973 0.795186 36.684 0.631671C37.2707 0.468156 37.8867 0.400024 38.5321 0.400024C38.8547 0.400024 39.1921 0.413651 39.5148 0.454529C39.8521 0.495408 40.1601 0.549913 40.4681 0.604418C40.7615 0.672549 41.0401 0.740681 41.3042 0.822438C41.5682 0.904196 41.7735 0.985953 41.9202 1.06771C42.1255 1.17672 42.2722 1.28573 42.3602 1.40837C42.4482 1.51738 42.4922 1.66727 42.4922 1.85803V2.49847C42.4922 2.78462 42.3749 2.93451 42.1549 2.93451C42.0375 2.93451 41.8468 2.88 41.5975 2.77099C40.7615 2.41671 39.8228 2.23957 38.7814 2.23957C37.9454 2.23957 37.2853 2.3622 36.8307 2.6211C36.376 2.88 36.1413 3.27516 36.1413 3.83384C36.1413 4.21537 36.288 4.54241 36.5813 4.8013C36.8747 5.0602 37.4173 5.3191 38.1947 5.55075L40.2775 6.16393C41.3335 6.47733 42.0962 6.91337 42.5509 7.47205C43.0055 8.03073 43.2256 8.67116 43.2256 9.37972C43.2256 9.96565 43.0936 10.4971 42.8442 10.9604C42.5802 11.4237 42.2282 11.8324 41.7735 12.1595C41.3188 12.5001 40.7761 12.7454 40.1454 12.9226C39.4854 13.1133 38.7961 13.2087 38.048 13.2087Z" fill="#252F3E"/>
<path fill-rule="evenodd" clip-rule="evenodd" d="M40.8203 19.8311C35.9948 23.1422 28.9839 24.9 22.9557 24.9C14.5074 24.9 6.89511 21.9976 1.14556 17.1739C0.690882 16.7924 1.10156 16.2746 1.64425 16.5744C7.86314 19.9265 15.5341 21.9568 23.469 21.9568C28.8226 21.9568 34.7041 20.9212 40.1163 18.7955C40.923 18.4548 41.6124 19.286 40.8203 19.8311Z" fill="#FF9900"/>
<path fill-rule="evenodd" clip-rule="evenodd" d="M42.83 17.7054C42.214 16.9696 38.7525 17.3511 37.1831 17.5282C36.7138 17.5827 36.6404 17.2012 37.0658 16.9151C39.8232 15.1164 44.3554 15.6342 44.8834 16.2337C45.4114 16.8469 44.7367 21.0574 42.1553 23.0741C41.7593 23.3875 41.3779 23.224 41.554 22.8152C42.1406 21.4662 43.446 18.4276 42.83 17.7054Z" fill="#FF9900"/>
</svg>
