<svg width="34" height="34" viewBox="0 0 34 34" fill="none" xmlns="http://www.w3.org/2000/svg">
<path d="M33.7097 17.3601C33.7114 15.9928 33.5991 14.995 33.3546 13.96L17.3779 13.9406L17.3704 20.1115L26.7484 20.123C26.5575 21.6563 25.5337 23.9646 23.2629 25.5138L23.2308 25.7203L28.2777 29.5506L28.6276 29.5852C31.8454 26.6883 33.7035 22.4225 33.7097 17.3601Z" fill="#4285F4"/>
<path d="M17.3542 33.5993C21.9486 33.6049 25.8075 32.1314 28.6279 29.5852L23.2631 25.5138C21.825 26.4913 19.8956 27.1725 17.3621 27.1694C12.8621 27.164 9.04643 24.2586 7.68986 20.2476L7.49028 20.2639L2.23278 24.2299L2.16386 24.4165C4.95549 29.8518 10.6988 33.5911 17.3542 33.5993Z" fill="#34A853"/>
<path d="M7.68996 20.2477C7.33198 19.2126 7.12543 18.1037 7.12683 16.9582C7.12823 15.8126 7.33748 14.7043 7.67907 13.6701L7.66982 13.4497L2.35626 9.40703L2.18215 9.4877C1.02611 11.7404 0.361258 14.2709 0.357993 16.95C0.354729 19.629 1.01341 22.161 2.16396 24.4165L7.68996 20.2477Z" fill="#FBBC05"/>
<path d="M17.3871 6.7717C20.5823 6.77559 22.7361 8.12698 23.9637 9.2556L28.7718 4.67932C25.8256 1.99668 21.9893 0.347608 17.3949 0.342009C10.7395 0.3339 4.98707 4.05907 2.18219 9.48763L7.67911 13.67C9.06436 9.66237 12.8871 6.76621 17.3871 6.7717Z" fill="#EB4335"/>
</svg>
