<svg width="28" height="28" viewBox="0 0 28 28" fill="none" xmlns="http://www.w3.org/2000/svg">
<path d="M14.2334 0C10.1957 0.0171667 5.50695 0.696967 0.5 2.68945C0.5 2.68945 0.724311 3.28914 1.26907 4.28709C5.84914 2.2763 10.3251 1.64342 14.2334 1.67089V1.67432C18.1416 1.63999 22.6187 2.27859 27.1976 4.28366C27.8099 3.17584 27.9667 2.68601 27.9667 2.68601C22.9598 0.701545 18.271 0.0171667 14.2334 0Z" fill="#C70B01"/>
<path d="M10.3636 5.76118L14.233 27.4667L18.0795 5.7669C21.7406 5.7669 22.8953 6.16746 23.0624 7.81546C23.0624 7.81546 25.523 6.89647 26.7612 5.0253C21.9237 2.77646 17.0655 2.67346 17.0655 2.67346L14.233 6.13656V6.13884H14.2284L14.233 6.13656L11.4016 2.67804C11.4016 2.67804 6.54346 2.78218 1.70703 5.03217C2.94647 6.90333 5.40359 7.81317 5.40359 7.81317C5.57068 6.16631 6.72428 5.76118 10.3636 5.76118Z" fill="#C70B01"/>
<path d="M14.2334 0C10.1957 0.0171667 5.50695 0.696967 0.5 2.68945C0.5 2.68945 0.724311 3.28914 1.26907 4.28709C5.7553 2.31865 10.142 1.67089 13.993 1.67089C14.0731 1.67089 14.1532 1.67089 14.2334 1.67204V1.67547V0Z" fill="#AD0A01"/>
<path d="M11.4016 2.67798C11.4016 2.67798 6.54346 2.78212 1.70703 5.0321C2.94647 6.90327 5.40359 7.81311 5.40359 7.81311C5.57068 6.16625 6.72543 5.76226 10.3648 5.76226L14.233 27.4667V6.13649V6.13878H14.2284L14.233 6.13649L11.4016 2.67798Z" fill="#AD0A01"/>
</svg>
