<svg width="30" height="30" viewBox="0 0 30 30" fill="none" xmlns="http://www.w3.org/2000/svg">
<path d="M25.5404 4.44764C22.7435 1.66118 19.0245 0.125785 15.0622 0.124084C6.89726 0.124084 0.252631 6.73737 0.249362 14.866C0.248411 17.4644 0.930328 20.0008 2.22647 22.2365L0.125 29.876L7.97747 27.826C10.141 29.0007 12.5769 29.6197 15.0559 29.6207H15.0621H15.0622C23.2259 29.6207 29.8715 23.0063 29.875 14.878C29.8763 10.9384 28.3368 7.2343 25.5404 4.44764ZM15.0622 27.1307H15.0574C12.8478 27.1296 10.681 26.539 8.79106 25.4224L8.34128 25.157L3.68146 26.3733L4.92557 21.8517L4.63252 21.3881C3.4 19.437 2.74934 17.1822 2.75026 14.867C2.75297 8.1107 8.27573 2.61415 15.0669 2.61415C18.3555 2.61551 21.4464 3.89174 23.7711 6.20777C26.0956 8.52377 27.3748 11.6026 27.3738 14.8769C27.371 21.6334 21.848 27.1307 15.0622 27.1307Z" fill="#E0E0E0"/>
<path d="M0.804688 29.0282L2.81016 21.7378C1.57291 19.6041 0.922268 17.1834 0.923049 14.7043C0.926293 6.94706 7.26746 0.636047 15.0588 0.636047C18.8403 0.637747 22.3894 2.10293 25.0579 4.76218C27.727 7.4214 29.196 10.9561 29.1945 14.7153C29.1912 22.4726 22.8497 28.7842 15.0593 28.7842C15.0588 28.7842 15.0597 28.7842 15.0593 28.7842H15.053C12.6874 28.7835 10.3628 28.1922 8.29831 27.072L0.804688 29.0282Z" fill="url(#paint0_linear_55_12462)"/>
<path fill-rule="evenodd" clip-rule="evenodd" d="M11.4018 8.60729C11.1278 8.00067 10.8392 7.98853 10.5785 7.97792C10.3653 7.96881 10.1211 7.96937 9.87737 7.96937C9.63343 7.96937 9.23702 8.06064 8.90179 8.42514C8.56637 8.78963 7.62109 9.67079 7.62109 11.4629C7.62109 13.2552 8.93229 14.987 9.11505 15.2302C9.298 15.4731 11.6461 19.2683 15.3649 20.7284C18.4556 21.9418 19.0845 21.7004 19.7553 21.6397C20.4262 21.579 21.9199 20.7587 22.2249 19.9081C22.5298 19.0577 22.5298 18.3287 22.4383 18.1763C22.3468 18.0245 22.1029 17.9334 21.737 17.7513C21.3711 17.5691 19.5724 16.6878 19.237 16.5664C18.9015 16.4449 18.6576 16.3842 18.4137 16.7489C18.1697 17.1132 17.4689 17.9334 17.2555 18.1763C17.042 18.4197 16.8286 18.4501 16.4627 18.2679C16.0968 18.0852 14.9184 17.701 13.5205 16.4601C12.4329 15.4947 11.6985 14.3023 11.4851 13.9377C11.2716 13.5734 11.4622 13.376 11.6458 13.1944C11.81 13.0312 12.0117 12.7692 12.1946 12.5565C12.3772 12.3438 12.4382 12.192 12.5602 11.9491C12.6821 11.7059 12.6211 11.4932 12.5297 11.3111C12.4382 11.1289 11.7271 9.32754 11.4018 8.60729Z" fill="white"/>
<path d="M25.4195 4.40077C22.6548 1.64629 18.9785 0.128555 15.0617 0.126831C6.99042 0.126831 0.422066 6.66419 0.418821 14.6995C0.41787 17.2681 1.09196 19.7753 2.37322 21.9855L0.295898 29.5372L8.05823 27.5107C10.1969 28.6719 12.6049 29.2838 15.0554 29.2848H15.0616C23.1315 29.2848 29.7009 22.7463 29.7043 14.7113C29.7057 10.8171 28.1839 7.15544 25.4195 4.40077ZM15.0617 26.8235H15.0569C12.8727 26.8223 10.7307 26.2385 8.86248 25.1348L8.41785 24.8724L3.81153 26.0748L5.04134 21.605L4.75166 21.1468C3.53329 19.2181 2.89008 16.9892 2.89103 14.7005C2.89369 8.02181 8.35306 2.58836 15.0663 2.58836C18.3172 2.5897 21.3726 3.85128 23.6706 6.14071C25.9684 8.43014 27.2329 11.4736 27.232 14.7104C27.2291 21.3893 21.7695 26.8235 15.0617 26.8235Z" fill="white"/>
<defs>
<linearGradient id="paint0_linear_55_12462" x1="14.9996" y1="29.0282" x2="14.9996" y2="0.636095" gradientUnits="userSpaceOnUse">
<stop stop-color="#20B038"/>
<stop offset="1" stop-color="#60D66A"/>
</linearGradient>
</defs>
</svg>
