<svg width="2975" height="532" viewBox="0 0 2975 532" fill="none" xmlns="http://www.w3.org/2000/svg">
<g style="mix-blend-mode:overlay" opacity="0.4">
<path d="M540.14 60.4533C547.507 69.811 555.043 77.91 560.69 86.7499C599.31 147.149 595.565 207.522 558.592 267.244C538.817 299.196 509.488 324.544 469.832 341.203C432.21 357.009 392.331 361.868 350.656 353.575C278.268 339.211 233.467 283.102 247.412 224.458C253.657 198.112 268.475 174.779 287.787 153.241C333.923 101.779 395.069 67.4422 471.401 50.6812C475.983 49.6811 480.514 48.428 487.068 46.78C483.219 44.2139 480.789 42.1268 477.803 40.6737C437.574 20.7312 393.351 13.9149 347.239 18.7072C219.522 32.0108 127.017 85.556 74.331 179.857C45.4175 231.624 40.5096 286.134 65.7621 340.356C84.0928 379.712 110.357 415.744 144.498 447.82C147.638 450.754 151.143 453.407 154.618 456.105C155.969 457.133 157.64 457.891 160.635 459.608C161.177 456.28 162.128 453.874 161.847 451.589C160.182 436.96 158.158 422.383 156.493 407.754C156.024 403.54 155.388 399.14 156.502 395.097C157.154 392.654 161.034 389.018 163.407 389.029C166.867 389.033 170.587 391.632 173.691 393.626C174.833 394.364 174.817 396.496 174.985 398.012C178.251 424.931 181.559 451.839 184.581 478.742C186.098 492.269 180.493 496.338 163.733 494.434C159.925 494.024 156.075 493.51 152.389 492.689C116.687 484.528 80.8811 476.583 45.332 467.966C34.3359 465.297 23.7704 461.189 13.4772 457.052C8.9259 455.232 4.58718 452.143 1.78486 448.744C0.153769 446.76 0.361203 442.338 2.11745 440.414C3.84414 438.536 8.55469 438.225 12.0699 437.646C13.2613 437.422 14.8599 438.236 16.0911 438.839C46.4713 453.24 80.6218 459.017 113.96 466.708C122.611 468.713 131.323 470.512 143.406 473.174C140.364 469.645 139.589 468.396 138.451 467.428C101.616 437.056 75.222 401.057 54.24 362.671C9.33358 280.331 25.3932 202.08 84.4279 128.792C132.526 69.047 201.376 30.0754 286.592 10.3586C326.721 1.06639 367.817 -2.50287 409.598 2.79948C445.591 7.35349 478.408 18.0638 506.891 36.3238C515.059 41.5659 522.835 43.0307 533.101 42.9952C553.235 42.8727 573.764 43.031 593.479 45.8257C679.894 58.1453 738.484 105.809 749.514 175.463C759.939 241.279 734.146 297.62 671.096 341.593C659.269 349.849 644.707 355.6 630.934 361.913C626.083 364.159 620.101 365.093 614.426 365.722C609.839 366.229 605.234 364.271 605.062 360.211C604.945 357.618 607.462 354.857 609.217 352.326C609.792 351.497 611.671 351.215 613.038 350.833C655.333 338.488 683.453 313.558 704.086 282.948C731.611 242.132 738.623 199.025 721.943 153.972C707.534 115.073 676.298 88.3471 630.472 72.13C603.124 62.4385 568.032 57.8861 540.14 60.4533ZM463.515 70.068C408.455 84.2924 361.955 108.866 324.13 143.837C300.902 165.295 281.918 188.878 271.572 216.484C246.943 282.07 307.005 337.229 380.42 340.202C419.163 341.746 454.019 333.019 484.038 313.654C541.8 276.368 566.741 226.549 566.127 168.108C565.738 130.89 550.02 97.8308 520.07 69.0716C513.931 63.2052 507.522 61.3589 498.646 63.2487C486.972 65.614 475.216 67.7718 463.515 70.068Z" fill="url(#paint0_linear_55_12578)"/>
<path d="M1052.77 90.8523C1060.14 100.21 1067.68 108.309 1073.32 117.149C1111.94 177.548 1108.2 237.921 1071.22 297.643C1051.45 329.595 1022.12 354.943 982.464 371.602C944.843 387.408 904.964 392.267 863.288 383.974C790.9 369.61 746.099 313.501 760.044 254.857C766.29 228.511 781.107 205.178 800.42 183.64C846.556 132.178 907.702 97.8412 984.034 81.0802C988.616 80.0801 993.146 78.827 999.701 77.179C995.851 74.6129 993.422 72.5258 990.435 71.0727C950.206 51.1302 905.983 44.3139 859.872 49.1062C732.154 62.4098 639.649 115.955 586.964 210.256C558.05 262.023 553.142 316.533 578.395 370.755C596.725 410.111 622.99 446.143 657.13 478.218C660.271 481.153 663.775 483.806 667.25 486.504C668.601 487.532 670.272 488.29 673.267 490.007C673.809 486.679 674.761 484.273 674.48 481.988C672.815 467.359 670.791 452.782 669.126 438.153C668.657 433.939 668.02 429.539 669.135 425.496C669.787 423.053 673.667 419.417 676.04 419.428C679.5 419.432 683.22 422.031 686.323 424.025C687.466 424.763 687.45 426.895 687.618 428.411C690.883 455.33 694.191 482.238 697.214 509.141C698.731 522.668 693.126 526.737 676.366 524.833C672.557 524.423 668.707 523.909 665.022 523.088C629.32 514.927 593.514 506.982 557.964 498.365C546.968 495.696 536.403 491.588 526.11 487.451C521.558 485.631 517.22 482.542 514.417 479.143C512.786 477.159 512.994 472.737 514.75 470.813C516.477 468.935 521.187 468.624 524.702 468.045C525.894 467.821 527.492 468.635 528.724 469.237C559.104 483.639 593.254 489.416 626.592 497.107C635.243 499.112 643.956 500.911 656.039 503.573C652.996 500.044 652.222 498.795 651.084 497.827C614.248 467.455 587.854 431.456 566.873 393.07C521.966 310.73 538.026 232.479 597.06 159.191C645.158 99.446 714.008 60.4744 799.224 40.7576C839.354 31.4654 880.45 27.8961 922.231 33.1985C958.223 37.7525 991.04 48.4628 1019.52 66.7228C1027.69 71.9649 1035.47 73.4297 1045.73 73.3942C1065.87 73.2717 1086.4 73.43 1106.11 76.2247C1192.53 88.5443 1251.12 136.208 1262.15 205.862C1272.57 271.678 1246.78 328.019 1183.73 371.992C1171.9 380.248 1157.34 385.999 1143.57 392.312C1138.72 394.558 1132.73 395.492 1127.06 396.121C1122.47 396.628 1117.87 394.67 1117.69 390.61C1117.58 388.017 1120.09 385.256 1121.85 382.725C1122.42 381.896 1124.3 381.614 1125.67 381.232C1167.97 368.887 1196.09 343.957 1216.72 313.347C1244.24 272.531 1251.26 229.424 1234.58 184.371C1220.17 145.472 1188.93 118.746 1143.1 102.529C1115.76 92.8375 1080.66 88.2851 1052.77 90.8523ZM976.148 100.467C921.087 114.691 874.588 139.265 836.763 174.236C813.535 195.694 794.551 219.277 784.204 246.883C759.575 312.469 819.638 367.628 893.052 370.6C931.796 372.145 966.652 363.418 996.67 344.053C1054.43 306.767 1079.37 256.948 1078.76 198.507C1078.37 161.289 1062.65 128.23 1032.7 99.4706C1026.56 93.6042 1020.15 91.7579 1011.28 93.6477C999.604 96.013 987.849 98.1708 976.148 100.467Z" fill="url(#paint1_linear_55_12578)"/>
<path d="M1688.86 176.048C1691.56 186.896 1694.99 196.618 1696.32 206.489C1705.45 273.945 1675.01 329.217 1613.82 374.344C1581.08 398.489 1542.37 413.728 1497.89 417.893C1455.69 421.846 1416.27 414.934 1381.03 395.232C1319.82 361.047 1303 295.821 1342.2 245.091C1359.79 222.295 1384.05 204.771 1411.7 190.213C1477.77 155.425 1550.21 140.93 1629 147.197C1633.73 147.579 1638.52 147.71 1645.38 148.053C1642.93 144.553 1641.59 141.908 1639.45 139.694C1610.77 109.534 1572.49 90.4791 1527.28 81.7161C1402.02 57.4728 1291.71 80.8945 1200.41 153.783C1150.3 193.799 1121.39 243.265 1120.78 301.119C1120.34 343.113 1128.8 384.28 1146.38 424.016C1148.01 427.656 1150.1 431.138 1152.14 434.653C1152.94 436.001 1154.16 437.188 1156.2 439.65C1158.19 436.699 1160.15 434.728 1160.91 432.514C1165.88 418.382 1170.49 404.197 1175.47 390.065C1176.91 385.998 1178.28 381.708 1181.12 378.256C1182.82 376.162 1188.07 373.882 1190.28 374.574C1193.51 375.571 1195.83 379.064 1197.84 381.816C1198.58 382.833 1197.61 384.818 1197.09 386.281C1188.13 412.342 1179.21 438.405 1170.03 464.382C1165.41 477.442 1158.36 479.631 1143.55 473.043C1140.17 471.567 1136.81 469.982 1133.73 468.158C1104.02 450.294 1074.11 432.601 1044.75 414.354C1035.67 408.707 1027.63 401.841 1019.86 395.024C1016.42 392.02 1013.75 387.891 1012.64 383.914C1012.01 381.595 1014.17 377.527 1016.67 376.236C1019.12 374.979 1023.66 376.041 1027.21 376.509C1028.42 376.642 1029.55 377.861 1030.43 378.776C1052.39 400.937 1081.71 416.131 1109.42 432.879C1116.61 437.233 1123.95 441.413 1134.05 447.366C1132.78 443.199 1132.61 441.811 1131.98 440.581C1111.12 401.661 1102.53 360.487 1100.06 318.639C1094.85 228.9 1144.77 160.477 1232.63 109.023C1304.22 67.0678 1385.94 50.4579 1474.34 56.5162C1515.98 59.3624 1555.97 67.8272 1592.63 84.7687C1624.22 99.3501 1650.1 118.766 1668.56 143.984C1673.86 151.221 1680.47 154.82 1690.07 157.734C1708.94 163.399 1728.04 169.439 1745.22 177.706C1820.45 214.008 1853.91 275.311 1833.14 343.485C1813.5 407.904 1764.27 453.084 1685.74 476.027C1671.01 480.338 1654.84 481.526 1639.15 483.464C1633.62 484.168 1627.61 483.323 1622.03 482.281C1617.52 481.438 1614.09 478.288 1615.74 474.449C1616.79 471.996 1620.37 470.141 1623.14 468.283C1624.05 467.674 1625.93 467.95 1627.38 467.986C1672.4 468.605 1709.8 453.409 1742.73 430.763C1786.66 400.569 1812.45 362.35 1816.97 315.513C1820.87 275.073 1803.61 241.164 1768.04 212.874C1746.81 195.979 1716.06 181.658 1688.86 176.048ZM1612.98 163.027C1555.2 160.499 1500.79 170.086 1449.85 191.867C1418.57 205.227 1390.31 221.789 1368.33 244.583C1316.05 298.726 1347.55 367.447 1414.81 391.293C1450.31 403.856 1486.77 405.716 1523.46 396.258C1594.06 378.039 1639.59 338.702 1665.09 283.982C1681.34 249.135 1681.41 213.768 1666.26 178.331C1663.15 171.093 1657.98 167.53 1648.85 166.746C1636.88 165.603 1624.94 164.243 1612.98 163.027Z" fill="url(#paint2_linear_55_12578)"/>
<path d="M2256.51 155.269C2261.72 165.515 2267.37 174.546 2271 184.04C2295.84 248.918 2278.96 307.818 2229.51 361.409C2203.06 390.081 2168.64 410.911 2125.95 421.737C2085.45 432.009 2045.11 431.189 2005.89 417.171C1937.74 392.862 1905.88 331.339 1932.42 275.574C1944.32 250.518 1964.01 229.633 1987.73 211.146C2044.41 166.973 2112.12 141.766 2190.95 135.993C2195.68 135.652 2200.42 135.055 2207.23 134.354C2204 131.287 2202.06 128.891 2199.44 127.041C2164.18 101.76 2122.12 88.837 2075.67 87.0757C1946.99 82.2265 1844.2 121.935 1771.72 207.354C1731.94 254.248 1715.2 307.213 1728.22 364.132C1737.68 405.447 1755.67 444.603 1782.28 480.972C1784.74 484.302 1787.61 487.405 1790.44 490.55C1791.55 491.752 1793.03 492.732 1795.6 494.843C1796.86 491.643 1798.32 489.409 1798.55 487.12C1800.1 472.487 1801.29 457.854 1802.85 443.22C1803.31 439.006 1803.64 434.586 1805.62 430.764C1806.8 428.45 1811.41 425.416 1813.75 425.761C1817.15 426.251 1820.25 429.332 1822.87 431.73C1823.83 432.618 1823.35 434.714 1823.19 436.23C1820.52 463.185 1817.9 490.135 1815 517.042C1813.54 530.569 1807.13 533.787 1791.04 529.559C1787.38 528.62 1783.7 527.573 1780.25 526.247C1746.88 513.198 1713.35 500.347 1680.23 486.87C1669.98 482.698 1660.48 477.171 1651.24 471.652C1647.16 469.221 1643.56 465.571 1641.54 461.831C1640.37 459.649 1641.54 455.326 1643.69 453.679C1645.8 452.073 1650.51 452.429 1654.1 452.352C1655.32 452.3 1656.72 453.325 1657.8 454.091C1684.57 472.535 1716.94 483.019 1748.09 495.274C1756.17 498.463 1764.35 501.458 1775.67 505.776C1773.45 501.874 1772.96 500.536 1772.05 499.423C1742.41 464.353 1724.28 425.21 1712 384.478C1685.76 297.121 1718.67 222.353 1792.81 158.51C1853.23 106.459 1929.54 77.772 2017.77 70.3371C2059.31 66.8288 2100.56 69.0894 2140.55 80.1788C2175 89.7181 2204.97 104.871 2229.04 126.847C2235.93 133.154 2243.27 135.688 2253.39 137.096C2273.24 139.804 2293.42 142.844 2312.23 148.365C2394.64 172.632 2441.92 227.78 2437.57 297.891C2433.46 364.14 2395.75 415.973 2324.06 450.398C2310.61 456.863 2295.01 460.478 2280.07 464.757C2274.8 466.286 2268.71 466.365 2262.98 466.187C2258.35 466.041 2254.25 463.467 2254.96 459.446C2255.42 456.878 2258.5 454.514 2260.78 452.269C2261.53 451.534 2263.44 451.52 2264.87 451.336C2309.21 445.127 2342.35 424.539 2369.36 397.308C2405.38 360.999 2421.7 319.554 2415.11 272.863C2409.42 232.55 2384.5 201.855 2342.91 179.454C2318.1 166.072 2284.54 156.661 2256.51 155.269ZM2178.95 153.967C2121.62 160.233 2070.46 177.888 2025.58 206.996C1998.02 224.854 1974.17 245.4 1957.95 271.119C1919.37 332.216 1966.47 394.949 2038.12 408.189C2075.93 415.152 2112.16 411.46 2145.95 396.616C2210.98 368.03 2246.42 322.497 2258.58 264.886C2266.33 228.198 2258.07 193.448 2234.86 160.932C2230.1 154.296 2224.19 151.578 2215.04 152.191C2203.02 152.879 2190.97 153.351 2178.95 153.967Z" fill="url(#paint3_linear_55_12578)"/>
<path d="M2497.54 474.749C2488.76 466.211 2480.01 458.939 2473.02 450.741C2425.2 394.731 2419.4 334.453 2446.66 271.453C2461.24 237.748 2486.34 209.626 2523.04 189.079C2557.87 169.585 2596.66 160.723 2639.3 164.727C2713.36 171.643 2766.63 222.77 2762.04 282.367C2760 309.139 2748.98 333.791 2733.22 357.116C2695.56 412.85 2640.33 453.113 2567.26 477.478C2562.87 478.935 2558.58 480.637 2552.34 482.936C2556.56 485.092 2559.3 486.917 2562.49 488.056C2605.53 503.765 2650.47 506.046 2695.45 496.618C2820.02 470.476 2903.34 407.977 2940.73 309.078C2961.25 254.787 2957.53 200.208 2923.94 148.971C2899.56 111.781 2867.84 78.6944 2828.92 50.3307C2825.34 47.7379 2821.45 45.461 2817.58 43.1361C2816.08 42.2527 2814.3 41.6702 2811.06 40.2703C2811.05 43.6273 2810.48 46.1101 2811.12 48.349C2815.08 62.6946 2819.38 76.9521 2823.34 91.2976C2824.47 95.431 2825.79 99.7318 2825.32 103.855C2825.06 106.346 2821.78 110.346 2819.43 110.576C2816 110.922 2811.9 108.721 2808.51 107.057C2807.26 106.44 2806.94 104.323 2806.53 102.837C2799.05 76.4603 2791.53 50.099 2784.29 23.7128C2780.66 10.4463 2785.58 5.84103 2802.5 6.03141C2806.34 6.05246 2810.24 6.17231 2814.03 6.61353C2850.72 11.0924 2887.49 15.346 2924.1 20.2931C2935.43 21.8268 2946.56 24.8313 2957.42 27.8935C2962.22 29.2375 2967.01 31.8626 2970.32 34.9512C2972.25 36.7542 2972.74 41.1626 2971.3 43.2491C2969.89 45.2875 2965.26 46.0729 2961.87 47.0044C2960.72 47.347 2959.01 46.7012 2957.69 46.2283C2925.29 35.0192 2890.51 32.7484 2856.23 28.496C2847.34 27.3837 2838.41 26.4815 2826.01 25.0651C2829.58 28.2579 2830.55 29.4189 2831.83 30.2639C2873.15 56.6641 2905 89.7057 2931.86 125.664C2989.37 202.806 2985.77 282.07 2938.76 360.764C2900.47 424.915 2838.33 470.557 2756.91 498.755C2718.57 512.041 2678.38 519.747 2636.1 518.72C2599.69 517.85 2565.45 510.549 2534.32 495.319C2525.4 490.946 2517.45 490.281 2507.28 491.356C2487.33 493.518 2466.94 495.442 2446.95 494.667C2359.3 491.201 2293.68 449.85 2271.76 381.861C2251.05 317.618 2267.76 259.106 2323.36 209.089C2333.79 199.699 2347.33 192.517 2360 184.858C2364.45 182.138 2370.24 180.605 2375.77 179.406C2380.24 178.438 2385.12 179.914 2385.93 183.925C2386.45 186.486 2384.39 189.48 2383.05 192.169C2382.61 193.05 2380.79 193.52 2379.49 194.037C2339.49 210.572 2315.53 238.156 2299.88 270.616C2279.01 313.901 2278.85 357.38 2302.49 400.389C2322.91 437.522 2358.1 460.873 2406.11 472.318C2434.76 479.162 2470.28 480.122 2497.54 474.749ZM2572.03 457.444C2624.4 437.752 2666.64 408.659 2698.65 370.13C2718.31 346.486 2733.42 321.164 2739.33 292.727C2753.43 225.16 2685.17 176.521 2611.88 181.012C2573.21 183.406 2540.02 195.596 2513.3 217.852C2461.88 260.698 2444.99 312.653 2454.81 370.573C2461.06 407.459 2481.86 438.666 2516.09 464.164C2523.1 469.362 2529.75 470.545 2538.26 467.77C2549.46 464.24 2560.78 460.908 2572.03 457.444Z" fill="url(#paint4_linear_55_12578)"/>
</g>
<defs>
<linearGradient id="paint0_linear_55_12578" x1="265.086" y1="-59.0028" x2="2366.12" y2="486.723" gradientUnits="userSpaceOnUse">
<stop stop-color="#616166" stop-opacity="0.3"/>
<stop offset="0.355921" stop-color="#F1F7FC"/>
<stop offset="0.619211" stop-color="#F2F8FC" stop-opacity="0.95"/>
<stop offset="1" stop-color="#616166" stop-opacity="0.78"/>
</linearGradient>
<linearGradient id="paint1_linear_55_12578" x1="265.086" y1="-59.0028" x2="2366.12" y2="486.723" gradientUnits="userSpaceOnUse">
<stop stop-color="#616166" stop-opacity="0.3"/>
<stop offset="0.355921" stop-color="#F1F7FC"/>
<stop offset="0.619211" stop-color="#F2F8FC" stop-opacity="0.95"/>
<stop offset="1" stop-color="#616166" stop-opacity="0.78"/>
</linearGradient>
<linearGradient id="paint2_linear_55_12578" x1="265.086" y1="-59.0028" x2="2366.12" y2="486.723" gradientUnits="userSpaceOnUse">
<stop stop-color="#616166" stop-opacity="0.3"/>
<stop offset="0.355921" stop-color="#F1F7FC"/>
<stop offset="0.619211" stop-color="#F2F8FC" stop-opacity="0.95"/>
<stop offset="1" stop-color="#616166" stop-opacity="0.78"/>
</linearGradient>
<linearGradient id="paint3_linear_55_12578" x1="265.086" y1="-59.0028" x2="2366.12" y2="486.723" gradientUnits="userSpaceOnUse">
<stop stop-color="#616166" stop-opacity="0.3"/>
<stop offset="0.355921" stop-color="#F1F7FC"/>
<stop offset="0.619211" stop-color="#F2F8FC" stop-opacity="0.95"/>
<stop offset="1" stop-color="#616166" stop-opacity="0.78"/>
</linearGradient>
<linearGradient id="paint4_linear_55_12578" x1="265.086" y1="-59.0028" x2="2366.12" y2="486.723" gradientUnits="userSpaceOnUse">
<stop stop-color="#616166" stop-opacity="0.3"/>
<stop offset="0.355921" stop-color="#F1F7FC"/>
<stop offset="0.619211" stop-color="#F2F8FC" stop-opacity="0.95"/>
<stop offset="1" stop-color="#616166" stop-opacity="0.78"/>
</linearGradient>
</defs>
</svg>
