<svg
        className="absolute inset-0"
        width="1871"
        height="1395"
        viewBox="0 0 1871 1395"
        fill="none"
        xmlns="http://www.w3.org/2000/svg"
      >
        <path
          d="M159.099 100.037L171.536 89.3222L231.292 136.977C233.332 138.604 236.359 137.873 237.432 135.494L270.227 62.7791L284.524 67.28L291.245 138.518C291.495 141.169 294.218 142.84 296.695 141.863L370.849 112.61L380.396 123.692L332.122 181.613C330.294 183.806 331.286 187.153 334.014 187.995L405.59 210.101L404.534 222.595L328.671 241.298C326.089 241.934 324.835 244.867 326.16 247.173L363.424 312.067L353.247 320.833L284.486 282.225C282.29 280.992 279.514 282.071 278.728 284.464L254.756 357.416L245.335 357.251L224.949 280.479C224.343 278.194 221.898 276.931 219.684 277.758L148.105 304.498L137.603 292.308L183.787 237.923C185.527 235.875 184.792 232.729 182.326 231.662L110.325 200.53L111.556 191.189L187.056 178.312C189.603 177.878 191.076 175.18 190.064 172.803L159.099 100.037Z"
          fill="#C0C5C9"
          fill-opacity="0.15"
        />
        <path
          d="M1544.06 680.049L1553.83 666.855L1622.62 700.155C1624.97 701.292 1627.76 699.911 1628.29 697.354L1644.23 619.196L1659.17 620.432L1681.44 688.433C1682.27 690.963 1685.29 691.993 1687.49 690.493L1753.37 645.604L1765.12 654.306L1730.82 721.449C1729.52 723.991 1731.22 727.037 1734.07 727.257L1808.76 733.03L1810.48 745.448L1740.62 780.425C1738.24 781.616 1737.66 784.753 1739.46 786.71L1790.12 841.785L1782.13 852.58L1706.55 830.091C1704.13 829.372 1701.66 831.037 1701.43 833.545L1694.14 909.988L1684.91 911.905L1648.09 841.521C1647 839.426 1644.33 838.734 1642.36 840.029L1578.44 881.899L1565.51 872.326L1598.56 809.093C1599.8 806.712 1598.39 803.805 1595.75 803.309L1518.66 788.826L1517.8 779.443L1588.6 750.23C1590.98 749.245 1591.83 746.288 1590.31 744.193L1544.06 680.049Z"
          fill="#C0C5C9"
          fill-opacity="0.15"
        />
        <g opacity="0.6">
          <g opacity="0.6">
            <rect
              width="109.567"
              height="796.854"
              rx="54.7837"
              transform="matrix(-0.999992 0.00403173 0.00403173 0.999992 588.464 276.226)"
              fill="url(#paint0_linear_1_5)"
              fill-opacity="0.5"
            />
            <rect
              width="109.567"
              height="796.854"
              rx="54.7837"
              transform="matrix(-0.999992 0.00403173 0.00403173 0.999992 429.415 356.553)"
              fill="url(#paint1_linear_1_5)"
              fill-opacity="0.5"
            />
            <rect
              width="109.567"
              height="796.854"
              rx="54.7837"
              transform="matrix(-0.999992 0.00403173 0.00403173 0.999992 270.528 476.723)"
              fill="url(#paint2_linear_1_5)"
              fill-opacity="0.5"
            />
            <rect
              width="109.567"
              height="796.854"
              rx="54.7837"
              transform="matrix(-0.999992 0.00403173 0.00403173 0.999992 111.641 596.892)"
              fill="url(#paint3_linear_1_5)"
              fill-opacity="0.5"
            />
          </g>
          <g opacity="0.6">
            <rect
              width="109.567"
              height="796.854"
              rx="54.7837"
              transform="matrix(-0.999992 0.00403173 0.00403173 0.999992 1311.02 276.226)"
              fill="url(#paint4_linear_1_5)"
              fill-opacity="0.5"
            />
            <rect
              width="109.567"
              height="796.854"
              rx="54.7837"
              transform="matrix(-0.999992 0.00403173 0.00403173 0.999992 1151.97 356.553)"
              fill="url(#paint5_linear_1_5)"
              fill-opacity="0.5"
            />
            <rect
              width="109.567"
              height="796.854"
              rx="54.7837"
              transform="matrix(-0.999992 0.00403173 0.00403173 0.999992 993.088 476.723)"
              fill="url(#paint6_linear_1_5)"
              fill-opacity="0.5"
            />
            <rect
              width="109.567"
              height="796.854"
              rx="54.7837"
              transform="matrix(-0.999992 0.00403173 0.00403173 0.999992 834.2 596.892)"
              fill="url(#paint7_linear_1_5)"
              fill-opacity="0.5"
            />
          </g>
          <g opacity="0.6">
            <rect
              x="478.766"
              y="276.226"
              width="109.567"
              height="796.854"
              rx="54.7837"
              transform="rotate(0.231002 478.766 276.226)"
              fill="url(#paint8_linear_1_5)"
              fill-opacity="0.5"
            />
            <rect
              x="637.814"
              y="356.553"
              width="109.567"
              height="796.854"
              rx="54.7837"
              transform="rotate(0.231002 637.814 356.553)"
              fill="url(#paint9_linear_1_5)"
              fill-opacity="0.5"
            />
            <rect
              x="796.701"
              y="476.723"
              width="109.567"
              height="796.854"
              rx="54.7837"
              transform="rotate(0.231002 796.701 476.723)"
              fill="url(#paint10_linear_1_5)"
              fill-opacity="0.5"
            />
            <rect
              x="955.589"
              y="596.892"
              width="109.567"
              height="796.854"
              rx="54.7837"
              transform="rotate(0.231002 955.589 596.892)"
              fill="url(#paint11_linear_1_5)"
              fill-opacity="0.5"
            />
          </g>
          <g opacity="0.6">
            <rect
              x="1201.33"
              y="276.226"
              width="109.567"
              height="796.854"
              rx="54.7837"
              transform="rotate(0.231002 1201.33 276.226)"
              fill="url(#paint12_linear_1_5)"
              fill-opacity="0.5"
            />
            <rect
              x="1360.37"
              y="356.553"
              width="109.567"
              height="796.854"
              rx="54.7837"
              transform="rotate(0.231002 1360.37 356.553)"
              fill="url(#paint13_linear_1_5)"
              fill-opacity="0.5"
            />
            <rect
              x="1519.26"
              y="476.723"
              width="109.567"
              height="796.854"
              rx="54.7837"
              transform="rotate(0.231002 1519.26 476.723)"
              fill="url(#paint14_linear_1_5)"
              fill-opacity="0.5"
            />
            <rect
              x="1678.15"
              y="596.892"
              width="109.567"
              height="796.854"
              rx="54.7837"
              transform="rotate(0.231002 1678.15 596.892)"
              fill="url(#paint15_linear_1_5)"
              fill-opacity="0.5"
            />
          </g>
        </g>
        <defs>
          <linearGradient
            id="paint0_linear_1_5"
            x1="54.7837"
            y1="0"
            x2="54.7837"
            y2="796.854"
            gradientUnits="userSpaceOnUse"
          >
            <stop stop-color="#C7CBCD" stop-opacity="0.39" />
            <stop offset="1" stop-color="#F2F3F3" stop-opacity="0.3" />
          </linearGradient>
          <linearGradient
            id="paint1_linear_1_5"
            x1="54.7837"
            y1="0"
            x2="54.7837"
            y2="796.854"
            gradientUnits="userSpaceOnUse"
          >
            <stop stop-color="#C7CBCD" stop-opacity="0.39" />
            <stop offset="1" stop-color="#F2F3F3" stop-opacity="0.3" />
          </linearGradient>
          <linearGradient
            id="paint2_linear_1_5"
            x1="54.7837"
            y1="0"
            x2="54.7837"
            y2="796.854"
            gradientUnits="userSpaceOnUse"
          >
            <stop stop-color="#C7CBCD" stop-opacity="0.39" />
            <stop offset="1" stop-color="#F2F3F3" stop-opacity="0.3" />
          </linearGradient>
          <linearGradient
            id="paint3_linear_1_5"
            x1="54.7837"
            y1="0"
            x2="54.7837"
            y2="796.854"
            gradientUnits="userSpaceOnUse"
          >
            <stop stop-color="#C7CBCD" stop-opacity="0.39" />
            <stop offset="1" stop-color="#F2F3F3" stop-opacity="0.3" />
          </linearGradient>
          <linearGradient
            id="paint4_linear_1_5"
            x1="54.7837"
            y1="0"
            x2="54.7837"
            y2="796.854"
            gradientUnits="userSpaceOnUse"
          >
            <stop stop-color="#C7CBCD" stop-opacity="0.39" />
            <stop offset="1" stop-color="#F2F3F3" stop-opacity="0.3" />
          </linearGradient>
          <linearGradient
            id="paint5_linear_1_5"
            x1="54.7837"
            y1="0"
            x2="54.7837"
            y2="796.854"
            gradientUnits="userSpaceOnUse"
          >
            <stop stop-color="#C7CBCD" stop-opacity="0.39" />
            <stop offset="1" stop-color="#F2F3F3" stop-opacity="0.3" />
          </linearGradient>
          <linearGradient
            id="paint6_linear_1_5"
            x1="54.7837"
            y1="0"
            x2="54.7837"
            y2="796.854"
            gradientUnits="userSpaceOnUse"
          >
            <stop stop-color="#C7CBCD" stop-opacity="0.39" />
            <stop offset="1" stop-color="#F2F3F3" stop-opacity="0.3" />
          </linearGradient>
          <linearGradient
            id="paint7_linear_1_5"
            x1="54.7837"
            y1="0"
            x2="54.7837"
            y2="796.854"
            gradientUnits="userSpaceOnUse"
          >
            <stop stop-color="#C7CBCD" stop-opacity="0.39" />
            <stop offset="1" stop-color="#F2F3F3" stop-opacity="0.3" />
          </linearGradient>
          <linearGradient
            id="paint8_linear_1_5"
            x1="533.549"
            y1="276.226"
            x2="533.549"
            y2="1073.08"
            gradientUnits="userSpaceOnUse"
          >
            <stop stop-color="#C7CBCD" stop-opacity="0.39" />
            <stop offset="1" stop-color="#F2F3F3" stop-opacity="0.3" />
          </linearGradient>
          <linearGradient
            id="paint9_linear_1_5"
            x1="692.598"
            y1="356.553"
            x2="692.598"
            y2="1153.41"
            gradientUnits="userSpaceOnUse"
          >
            <stop stop-color="#C7CBCD" stop-opacity="0.39" />
            <stop offset="1" stop-color="#F2F3F3" stop-opacity="0.3" />
          </linearGradient>
          <linearGradient
            id="paint10_linear_1_5"
            x1="851.485"
            y1="476.723"
            x2="851.485"
            y2="1273.58"
            gradientUnits="userSpaceOnUse"
          >
            <stop stop-color="#C7CBCD" stop-opacity="0.39" />
            <stop offset="1" stop-color="#F2F3F3" stop-opacity="0.3" />
          </linearGradient>
          <linearGradient
            id="paint11_linear_1_5"
            x1="1010.37"
            y1="596.892"
            x2="1010.37"
            y2="1393.75"
            gradientUnits="userSpaceOnUse"
          >
            <stop stop-color="#C7CBCD" stop-opacity="0.39" />
            <stop offset="1" stop-color="#F2F3F3" stop-opacity="0.3" />
          </linearGradient>
          <linearGradient
            id="paint12_linear_1_5"
            x1="1256.11"
            y1="276.226"
            x2="1256.11"
            y2="1073.08"
            gradientUnits="userSpaceOnUse"
          >
            <stop stop-color="#C7CBCD" stop-opacity="0.39" />
            <stop offset="1" stop-color="#F2F3F3" stop-opacity="0.3" />
          </linearGradient>
          <linearGradient
            id="paint13_linear_1_5"
            x1="1415.16"
            y1="356.553"
            x2="1415.16"
            y2="1153.41"
            gradientUnits="userSpaceOnUse"
          >
            <stop stop-color="#C7CBCD" stop-opacity="0.39" />
            <stop offset="1" stop-color="#F2F3F3" stop-opacity="0.3" />
          </linearGradient>
          <linearGradient
            id="paint14_linear_1_5"
            x1="1574.04"
            y1="476.723"
            x2="1574.04"
            y2="1273.58"
            gradientUnits="userSpaceOnUse"
          >
            <stop stop-color="#C7CBCD" stop-opacity="0.39" />
            <stop offset="1" stop-color="#F2F3F3" stop-opacity="0.3" />
          </linearGradient>
          <linearGradient
            id="paint15_linear_1_5"
            x1="1732.93"
            y1="596.892"
            x2="1732.93"
            y2="1393.75"
            gradientUnits="userSpaceOnUse"
          >
            <stop stop-color="#C7CBCD" stop-opacity="0.39" />
            <stop offset="1" stop-color="#F2F3F3" stop-opacity="0.3" />
          </linearGradient>
        </defs>
      </svg>