<svg width="125" height="150" viewBox="0 0 125 150" fill="none" xmlns="http://www.w3.org/2000/svg">
<path d="M186.672 10.7784L191.023 21.058L149.119 48.9233C146.946 50.3684 146.717 53.4739 148.654 55.2229L187.688 90.4685L181.801 98.788L135.949 88.6946C133.348 88.122 130.924 90.2033 131.097 92.8608L134.507 145.25L125.348 149.126L98.9165 107.454C97.3872 105.043 93.897 104.965 92.2607 107.304L64.1693 147.471L56.3007 144.19L59.848 92.8839C60.0315 90.2306 57.6226 88.1405 55.0217 88.6963L6.92452 98.9736L3.36492 90.563L41.5153 55.1338C43.361 53.4198 43.1822 50.4469 41.1442 48.9665L0.15899 19.1944L2.22452 13.1296L54.754 15.8217C57.1147 15.9427 59.0649 14.0011 58.9544 11.6399L56.5915 -38.8483L66.6666 -43.1124L91.3603 -3.37449C92.7784 -1.09232 95.9986 -0.829566 97.768 -2.85164L131.754 -41.691L137.546 -38.9516L130.414 10.9997C130.048 13.557 132.167 15.7846 134.739 15.5483L186.672 10.7784Z" fill="#C6CED2" fill-opacity="0.15"/>
</svg>