<svg width="233" height="244" viewBox="0 0 233 244" fill="none" xmlns="http://www.w3.org/2000/svg">
<path d="M35.2132 0H56.5432L75.2399 99.1008C75.7238 101.665 78.4942 103.087 80.8598 101.985L176.205 57.5648L186.462 74.1194L131.745 151.246C130.204 153.418 131.176 156.461 133.691 157.337L233 191.95V210.955L134.587 227.329C131.771 227.798 130.338 230.982 131.855 233.4L184.523 317.383L172.888 328.786L80.9297 282.144C78.5577 280.941 75.694 282.344 75.1921 284.956L56.5432 382H39.0914L3.64723 284.313C2.7881 281.945 -0.0193787 280.951 -2.17699 282.251L-88.8883 334.488L-98.0227 326.336L-52.4082 232.285C-51.3767 230.158 -52.4046 227.605 -54.6222 226.787L-149 191.95V171.045L-55.8187 156.423C-53.1643 156.007 -51.6672 153.144 -52.8398 150.726L-98.0227 57.5648L-88.8883 49.4129L-2.34785 101.546C-0.135132 102.879 2.742 101.797 3.52704 99.3356L35.2132 0Z" fill="#B0B5B9" fill-opacity="0.15"/>
</svg>
